<svg width="36" height="36" viewBox="0 0 36 36" fill="none" xmlns="http://www.w3.org/2000/svg">
<circle cx="18" cy="18" r="18" fill="#1ED760"/>
<path d="M28.6479 15.9573C29.4456 16.4323 30.4801 16.1687 30.9545 15.3687C31.429 14.5698 31.1666 13.5365 30.3662 13.0615C23.6866 9.09655 13.1169 8.72347 6.75882 10.6538C5.8685 10.9244 5.36698 11.8642 5.63667 12.7542C5.90607 13.6437 6.84649 14.1457 7.73594 13.8758C13.275 12.1947 22.8455 12.5116 28.6479 15.9573Z" fill="white"/>
<path d="M28.4577 21.0609C28.8637 20.4018 28.6558 19.538 27.9958 19.1315C22.4404 15.7176 14.313 14.7562 7.77554 16.7404C7.03433 16.9661 6.61611 17.7484 6.83949 18.4904C7.0652 19.2311 7.84864 19.6493 8.59101 19.425C14.3139 17.6884 21.6902 18.5496 26.5274 21.5231C27.1873 21.9285 28.0506 21.7214 28.4577 21.0609Z" fill="white"/>
<path d="M26.2554 25.9625C26.5787 25.4333 26.4121 24.7422 25.8835 24.4192C21.1386 21.5202 15.2573 20.8457 8.40027 22.4128C7.79508 22.5509 7.41821 23.1526 7.55655 23.7566C7.6946 24.3598 8.29601 24.7384 8.89975 24.6C15.1658 23.1686 20.4856 23.7523 24.7127 26.3355C25.2413 26.6588 25.9321 26.4928 26.2554 25.9625Z" fill="white"/>
</svg>