<svg width="36" height="36" viewBox="0 0 36 36" fill="none" xmlns="http://www.w3.org/2000/svg">
<circle cx="18" cy="18" r="18" fill="#FF0000"/>
<path fill-rule="evenodd" clip-rule="evenodd" d="M27.3504 10.2486C28.3825 10.5206 29.199 11.3214 29.4763 12.3338C29.9846 14.1772 30 18 30 18C30 18 30 21.8379 29.4917 23.6662C29.2144 24.6786 28.3979 25.4794 27.3659 25.7514C25.5019 26.25 18 26.25 18 26.25C18 26.25 10.4981 26.25 8.63415 25.7514C7.60205 25.4794 6.78562 24.6786 6.50834 23.6662C6 21.8228 6 18 6 18C6 18 6 14.1772 6.49294 12.3489C6.77022 11.3365 7.58665 10.5357 8.61874 10.2637C10.4827 9.76511 17.9846 9.75 17.9846 9.75C17.9846 9.75 25.4865 9.75 27.3504 10.2486ZM21.8203 18L15.5969 21.5357V14.4643L21.8203 18Z" fill="white"/>
</svg>
