<svg width="48" height="48" fill="none" xmlns="http://www.w3.org/2000/svg"><circle cx="24" cy="24" r="24" fill="#131921"/><path fill-rule="evenodd" clip-rule="evenodd" d="M35.61 31.885c1.131-.14 2.93-.053 3.285.409.268.351-.01 1.932-.466 3.065-.459 1.127-1.143 1.923-1.52 2.23-.384.309-.666.19-.462-.273.211-.461 1.367-3.325.91-3.926-.425-.556-2.35-.355-3.245-.261l-.18.018a20.35 20.35 0 0 0-.465.048c-.385.043-.488.055-.546-.064-.148-.416 1.554-1.11 2.688-1.246zm-26.741.463c5.248 3.206 13.373 8.167 26.322 1.994.558-.233.948.157.396.863-.556.712-5 4.795-12.47 4.795-7.466 0-13.185-5.109-14.93-7.228-.478-.55.073-.799.397-.597l.285.173z" fill="#F90"/><path fill-rule="evenodd" clip-rule="evenodd" d="M30.348 10.061C28.721 8.537 26.067 8 24.031 8c-4.019 0-8.506 1.5-9.451 6.478-.096.53.285.81.63.888l4.101.44c.38-.018.66-.393.731-.774.35-1.715 1.79-2.543 3.4-2.543.868 0 1.855.322 2.372 1.102.483.713.518 1.642.515 2.508v.063l-.001.095-.002.187v.761c-.27.031-.549.06-.834.09l-.156.016-.557.058-.162.016c-2.106.219-4.45.501-6.24 1.291-2.644 1.143-4.505 3.483-4.505 6.919 0 4.4 2.77 6.597 6.325 6.597 3.008 0 4.648-.708 6.966-3.078.04.055.076.11.113.163l.043.063.02.03.042.062.041.06.137.203.038.056.037.055.019.027.037.054c.454.664.86 1.186 1.899 2.049.312.165.71.15.99-.094l.008-.007.012.012.026-.023.106-.094.112-.1.148-.13.092-.081.127-.112.163-.144.204-.178.103-.09.176-.154.177-.155.18-.156.142-.124.143-.124.142-.122.105-.091.14-.12.136-.117.1-.087.098-.084.065-.055.095-.081.062-.053.09-.077.06-.05.086-.073.055-.046.054-.046.053-.044c.345-.285.285-.744.012-1.125a18.745 18.745 0 0 0-.117-.16l-.046-.063-.023-.031-.093-.125-.046-.063-.046-.062c-.644-.875-1.222-1.754-1.222-3.42v-6.931l.001-.166.002-.413c.012-2.437-.033-4.658-1.864-6.37l-.049-.046zM20.042 24.862c0-3.608 3.228-4.263 6.283-4.263v1.452c-.001 1.418-.05 2.651-.79 3.955-.672 1.19-1.736 1.923-2.925 1.923-1.623 0-2.568-1.239-2.568-3.067z" fill="#fff"/></svg>
