<svg width="48" height="48" fill="none" xmlns="http://www.w3.org/2000/svg"><circle cx="24" cy="24" r="24" fill="#000"/><path fill-rule="evenodd" clip-rule="evenodd" d="M29.939 8.574c0 1.463-.646 2.926-1.558 3.981-.97 1.167-2.64 2.037-3.971 2.037-.152 0-.304-.018-.399-.037a2.487 2.487 0 0 1-.057-.518c0-1.482.78-2.945 1.615-3.87C26.633 8.962 28.4 8.055 29.882 8c.038.167.057.37.057.574zm5.227 9.215c.037-.024.062-.04.074-.05-1.976-2.758-4.978-2.832-5.814-2.832-1.278 0-2.421.441-3.382.813-.698.269-1.299.501-1.786.501-.538 0-1.153-.242-1.84-.513-.867-.341-1.848-.727-2.929-.727-3.648 0-7.353 2.944-7.353 8.499 0 3.463 1.368 7.11 3.06 9.462 1.462 2 2.735 3.63 4.559 3.63.865 0 1.5-.263 2.166-.539.74-.306 1.52-.628 2.698-.628 1.19 0 1.902.303 2.588.595.64.272 1.257.534 2.219.534 1.995 0 3.306-1.759 4.56-3.518 1.406-2 1.995-3.962 2.014-4.055-.114-.037-3.933-1.537-3.933-5.777 0-3.413 2.601-5.077 3.099-5.395z" fill="#fff"/></svg>