<svg width="48" height="48" fill="none" xmlns="http://www.w3.org/2000/svg"><circle cx="24" cy="24" r="24" fill="#0057FF"/><path fill-rule="evenodd" clip-rule="evenodd" d="M8 34.389v-20.37c0-.192.064-.3.19-.32.36-.022.911-.038 1.653-.049l2.415-.032c.868-.01 1.663-.016 2.383-.016 1.737 0 3.12.193 4.147.578 1.027.385 1.816.871 2.367 1.46.51.517.89 1.15 1.112 1.844.18.57.276 1.165.286 1.764a5.162 5.162 0 0 1-.318 1.877c-.181.491-.439.952-.762 1.363a3.64 3.64 0 0 1-.858.802c.452.242.873.538 1.255.882.494.447.899.986 1.192 1.588.362.77.536 1.617.508 2.47a5.661 5.661 0 0 1-1.064 3.4c-.71.984-1.727 1.749-3.05 2.294-1.325.545-2.909.818-4.751.818H12.59c-.667 0-1.281-.006-1.842-.016-.562-.011-1.05-.022-1.462-.032a38.946 38.946 0 0 0-1.065-.017C8.074 34.657 8 34.56 8 34.39zm4.29-16.97v4.46h2.16c.572 0 1.134.01 1.685.031.395.003.789.046 1.175.129.28-.242.513-.536.683-.866.193-.4.286-.84.27-1.283.023-.504-.123-1.001-.413-1.412a2.47 2.47 0 0 0-1.191-.818 6.111 6.111 0 0 0-1.986-.273h-.922c-.275 0-.524.006-.746.016-.223.012-.461.017-.715.017zm0 13.537v-5.292h2.733c.387-.004.774.018 1.16.064.293.036.585.09.873.16.741.193 1.25.503 1.525.93.282.451.426.975.413 1.508a2.276 2.276 0 0 1-.508 1.508 2.974 2.974 0 0 1-1.51.898c-.75.203-1.526.3-2.303.289a35.422 35.422 0 0 1-2.383-.064zM30.69 29.561a4.16 4.16 0 0 1-.604-1.684l9.466-.006a.301.301 0 0 0 .286-.257l.023-.17c.027-.203.068-.499.091-.786.032-.385.048-.813.048-1.283a8.133 8.133 0 0 0-.381-2.438 7.32 7.32 0 0 0-1.176-2.262 5.555 5.555 0 0 0-2.081-1.652 7.112 7.112 0 0 0-3.067-.61 7.395 7.395 0 0 0-3.305.69 7.11 7.11 0 0 0-2.383 1.893 8.281 8.281 0 0 0-1.477 2.727 10.2 10.2 0 0 0-.493 3.16c0 .982.14 1.96.413 2.903a7.435 7.435 0 0 0 1.367 2.614 6.748 6.748 0 0 0 2.478 1.893c1.017.47 2.277.705 3.782.705.937.015 1.874-.066 2.796-.24a8.852 8.852 0 0 0 2.065-.69.457.457 0 0 0 .143-.144.48.48 0 0 0 .048-.24v-3.048c0-.193-.053-.246-.159-.16a8.49 8.49 0 0 1-1.859.56c-.676.121-1.362.18-2.05.177-1.038 0-1.88-.15-2.526-.449a3.277 3.277 0 0 1-1.445-1.203zm3.558-4.796h-4.162c.067-.46.212-.905.429-1.315a2.755 2.755 0 0 1 2.621-1.508 2.598 2.598 0 0 1 2.574 1.829c.078.238.12.487.127.738v.192a2.216 2.216 0 0 1-.46.048c-.244.011-.62.016-1.129.016z" fill="#fff"/><path d="M28.084 13h9.501c.148 0 .223.086.223.257v2.602a.228.228 0 0 1-.064.193.223.223 0 0 1-.19.064h-9.502c-.148 0-.222-.085-.222-.257v-2.634c0-.15.084-.225.254-.225z" fill="#fff"/></svg>