<svg width="48" height="48" fill="none" xmlns="http://www.w3.org/2000/svg"><circle cx="24" cy="24" r="24" fill="#F7931A"/><path fill-rule="evenodd" clip-rule="evenodd" d="M33.937 20.865c.5-3.363-2.042-5.17-5.517-6.376l1.127-4.555-2.752-.691-1.098 4.435c-.723-.182-1.467-.353-2.205-.523l1.105-4.464L21.847 8l-1.129 4.553a91.76 91.76 0 0 1-1.757-.416l.003-.014-3.796-.955-.732 2.962s2.042.47 1.999.5c1.114.28 1.316 1.023 1.282 1.613l-1.284 5.189c.077.02.177.048.286.092l-.093-.024-.198-.049-1.8 7.27c-.136.34-.482.852-1.26.658.027.04-2.002-.503-2.002-.503L10 32.05l3.582.899c.4.101.795.205 1.186.308l.776.202-1.139 4.607 2.75.691 1.127-4.558c.752.205 1.48.395 2.194.573l-1.124 4.537 2.752.691 1.14-4.598c4.693.894 8.222.533 9.708-3.742 1.197-3.444-.06-5.43-2.53-6.725 1.8-.417 3.154-1.609 3.515-4.07zm-6.289 8.883c-.78 3.158-5.689 1.852-7.934 1.255-.203-.054-.383-.102-.537-.14l1.511-6.104c.188.047.417.1.677.158 2.323.525 7.083 1.6 6.283 4.83zm-5.817-7.664c1.873.504 5.957 1.602 6.669-1.27.726-2.936-3.243-3.82-5.182-4.253-.218-.049-.41-.092-.568-.131l-1.37 5.535c.13.033.281.074.451.12z" fill="#fff"/></svg>