<svg width="48" height="48" fill="none" xmlns="http://www.w3.org/2000/svg"><circle cx="24" cy="24" r="24" fill="#5865F2"/><path fill-rule="evenodd" clip-rule="evenodd" d="M35.107 14.094A25.892 25.892 0 0 0 28.505 12a19.619 19.619 0 0 0-.845 1.772 24.021 24.021 0 0 0-7.317 0A18.99 18.99 0 0 0 19.487 12a25.806 25.806 0 0 0-6.607 2.099C8.702 20.47 7.57 26.684 8.136 32.81c2.771 2.088 5.457 3.357 8.097 4.187a20.359 20.359 0 0 0 1.734-2.882 16.984 16.984 0 0 1-2.73-1.341c.228-.172.452-.35.669-.535 5.265 2.486 10.986 2.486 16.188 0 .22.184.443.363.67.535-.866.526-1.782.978-2.736 1.344.5 1.011 1.08 1.977 1.734 2.882 2.643-.83 5.33-2.099 8.102-4.19.665-7.101-1.135-13.258-4.757-18.716zM18.684 29.043c-1.58 0-2.877-1.49-2.877-3.303s1.269-3.305 2.877-3.305c1.609 0 2.905 1.489 2.877 3.305.003 1.814-1.268 3.303-2.877 3.303zm7.755-3.303c0 1.814 1.296 3.303 2.877 3.303 1.608 0 2.877-1.49 2.877-3.303.027-1.816-1.27-3.305-2.877-3.305-1.609 0-2.877 1.492-2.877 3.305z" fill="#fff"/></svg>