<svg width="48" height="48" fill="none" xmlns="http://www.w3.org/2000/svg"><circle cx="24" cy="24" r="24" fill="#C2A633"/><path fill-rule="evenodd" clip-rule="evenodd" d="m23.027 8.002.648.017.6.03.326.024.515.047.361.04.373.047.581.087.4.07.408.08.417.09.21.05.426.108.431.12.436.134.219.072.439.155c.367.135.735.286 1.102.454l.44.21C35.313 11.803 39 15.866 39 24.257c0 7.45-2.942 11.389-6.244 13.464l-.39.236c-.392.227-.787.43-1.181.61l-.394.172-.393.159-.39.145-.388.132-.383.119-.378.108-.372.096-.183.044-.362.08-.353.072-.511.089-.329.05-.47.059-.297.03-.42.036-.504.029-.334.01-.407.003-.339-.007-.244-.012-10.9-.002V25.735H9v-3.49h3.833V8l10.194.002zm.222 5.909h-4.29v8.334h6.75v3.49h-6.75v8.333h4.656l.472-.009.532-.031.37-.036.403-.052.284-.045.295-.055.304-.065.156-.037.316-.082.321-.096c.163-.05.326-.107.491-.168l.331-.131.332-.148c2.377-1.113 4.726-3.523 4.719-8.741-.007-5.28-2.343-7.907-4.751-9.207l-.337-.172a9.861 9.861 0 0 0-.503-.23l-.332-.133-.33-.119a10.686 10.686 0 0 0-.162-.054l-.32-.099-.158-.044-.31-.08-.3-.07-.288-.059-.278-.05-.264-.04-.249-.032-.343-.036-.206-.016-.273-.014-.288-.006z" fill="#fff"/></svg>