<svg width="48" height="48" fill="none" xmlns="http://www.w3.org/2000/svg"><circle cx="24" cy="24" r="24" fill="#EA4C89"/><path fill-rule="evenodd" clip-rule="evenodd" d="M24 8C15.167 8 8 15.167 8 24s7.167 16 16 16c8.816 0 16-7.167 16-16S32.816 8 24 8zm10.568 7.375a13.603 13.603 0 0 1 3.09 8.503c-.452-.086-4.964-1.006-9.51-.433-.105-.226-.191-.469-.296-.712-.277-.66-.59-1.336-.902-1.978 5.033-2.048 7.323-4.998 7.618-5.38zM24 10.36c3.47 0 6.646 1.302 9.059 3.436-.243.347-2.308 3.106-7.167 4.928-2.24-4.112-4.72-7.479-5.102-8A13.9 13.9 0 0 1 24 10.36zm-5.813 1.284c.364.486 2.793 3.87 5.067 7.896-6.386 1.7-12.026 1.666-12.634 1.666.885-4.234 3.749-7.757 7.567-9.562zm-7.862 12.373v-.416c.59.017 7.22.104 14.04-1.944.399.764.763 1.545 1.11 2.326-.174.052-.364.104-.538.156-7.045 2.273-10.794 8.486-11.106 9.006a13.634 13.634 0 0 1-3.506-9.128zM24 37.675a13.57 13.57 0 0 1-8.382-2.881c.243-.503 3.02-5.848 10.725-8.538.034-.017.052-.017.087-.035 1.926 4.98 2.707 9.163 2.915 10.36A13.44 13.44 0 0 1 24 37.675zm7.618-2.343c-.139-.833-.867-4.824-2.655-9.736 4.286-.676 8.035.434 8.503.59-.59 3.801-2.776 7.08-5.848 9.146z" fill="#fff"/></svg>