<svg width="48" height="48" fill="none" xmlns="http://www.w3.org/2000/svg"><circle cx="24" cy="24" r="24" fill="#F7F7F7"/><path d="m10.42 33.854 1.41 2.473c.294.52.715.93 1.21 1.227l5.04-8.849H8c0 .576.147 1.153.44 1.673l1.98 3.476z" fill="#0066DA"/><path d="m24 18.295-5.04-8.849a3.353 3.353 0 0 0-1.21 1.227l-9.31 16.36A3.406 3.406 0 0 0 8 28.704h10.08L24 18.295z" fill="#00AC47"/><path d="M34.96 37.554a3.352 3.352 0 0 0 1.21-1.227l.586-1.023 2.804-4.926c.293-.52.44-1.097.44-1.673H29.919l2.145 4.276 2.896 4.573z" fill="#EA4335"/><path d="m24 18.295 5.04-8.849A3.187 3.187 0 0 0 27.39 9h-6.78c-.587 0-1.155.167-1.65.446L24 18.295z" fill="#00832D"/><path d="M29.92 28.705H18.08l-5.04 8.849a3.188 3.188 0 0 0 1.65.446h18.62c.587 0 1.155-.167 1.65-.446l-5.04-8.849z" fill="#2684FC"/><path d="m34.905 18.853-4.655-8.18a3.353 3.353 0 0 0-1.21-1.227L24 18.295l5.92 10.41h10.062c0-.576-.147-1.152-.44-1.673l-4.637-8.18z" fill="#FFBA00"/></svg>