<svg width="48" height="48" fill="none" xmlns="http://www.w3.org/2000/svg"><circle cx="24" cy="24" r="24" fill="#2C2C2C"/><path d="M19 39c2.76 0 5-2.24 5-5v-5h-5c-2.76 0-5 2.24-5 5s2.24 5 5 5z" fill="#0ACF83"/><path d="M14 24c0-2.76 2.24-5 5-5h5v10h-5c-2.76 0-5-2.24-5-5z" fill="#A259FF"/><path d="M14 14c0-2.76 2.24-5 5-5h5v10h-5c-2.76 0-5-2.24-5-5z" fill="#F24E1E"/><path d="M24 9h5c2.76 0 5 2.24 5 5s-2.24 5-5 5h-5V9z" fill="#FF7262"/><path d="M34 24c0 2.76-2.24 5-5 5s-5-2.24-5-5 2.24-5 5-5 5 2.24 5 5z" fill="#1ABCFE"/></svg>