<svg width="48" height="48" fill="none" xmlns="http://www.w3.org/2000/svg"><circle cx="24" cy="24" r="24" fill="#000"/><path d="M24 8C15.16 8 8 15.112 8 23.892c0 7.032 4.58 12.972 10.94 15.078.8.139 1.1-.338 1.1-.755 0-.378-.02-1.63-.02-2.96-4.02.735-5.06-.974-5.38-1.867-.18-.457-.96-1.868-1.64-2.245-.56-.298-1.36-1.033-.02-1.053 1.26-.02 2.16 1.152 2.46 1.629 1.44 2.404 3.74 1.728 4.66 1.311.14-1.033.56-1.728 1.02-2.126-3.56-.397-7.28-1.768-7.28-7.846 0-1.729.62-3.159 1.64-4.271-.16-.398-.72-2.026.16-4.212 0 0 1.34-.417 4.4 1.63a14.94 14.94 0 0 1 4-.537c1.36 0 2.72.179 4 .536 3.06-2.066 4.4-1.629 4.4-1.629.88 2.186.32 3.814.16 4.212 1.02 1.112 1.64 2.523 1.64 4.27 0 6.1-3.74 7.45-7.3 7.847.58.497 1.08 1.45 1.08 2.94 0 2.126-.02 3.834-.02 4.37 0 .418.3.915 1.1.756 6.513-2.184 10.898-8.25 10.9-15.078C40 15.112 32.84 8 24 8z" fill="#fff"/></svg>