<svg width="48" height="48" fill="none" xmlns="http://www.w3.org/2000/svg"><circle cx="24" cy="24" r="24" fill="#F7F7F7"/><path d="M10.182 36h5.09V23.64L8 18.185V33.82A2.18 2.18 0 0 0 10.182 36z" fill="#4285F4"/><path d="M32.727 36h5.091A2.181 2.181 0 0 0 40 33.819V18.186l-7.273 5.453V36z" fill="#34A853"/><path d="M32.727 14.187v9.452L40 18.186v-2.908c0-2.696-3.078-4.236-5.237-2.618l-2.036 1.527z" fill="#FBBC04"/><path fill-rule="evenodd" clip-rule="evenodd" d="M15.273 23.64v-9.453L24 20.731l8.727-6.544v9.452L24 30.183l-8.727-6.544z" fill="#EA4335"/><path d="M8 15.278v2.908l7.273 5.453v-9.452l-2.037-1.527C11.078 11.043 8 12.582 8 15.278z" fill="#C5221F"/></svg>