<svg width="48" height="48" fill="none" xmlns="http://www.w3.org/2000/svg"><circle cx="24" cy="24" r="24" fill="#F7F7F7"/><path d="M39 24.36a18.73 18.73 0 0 0-.25-3.027H23.835v6.014h8.539c-.383 1.973-1.505 3.64-3.167 4.773v4h5.094C37.284 33.333 39 29.227 39 24.36z" fill="#4285F4"/><path d="M23.837 40c4.276 0 7.852-1.44 10.465-3.88l-5.094-4c-1.425.96-3.233 1.547-5.371 1.547-4.131 0-7.628-2.814-8.882-6.614H9.703v4.12C12.303 36.4 17.647 40 23.837 40z" fill="#34A853"/><path d="M14.955 27.053A9.37 9.37 0 0 1 14.453 24c0-1.067.185-2.093.502-3.053v-4.12H9.702A15.947 15.947 0 0 0 8 24c0 2.587.62 5.013 1.702 7.173l5.253-4.12z" fill="#FBBC05"/><path d="M23.837 14.333c2.336 0 4.42.814 6.07 2.4l4.514-4.56C31.689 9.587 28.113 8 23.837 8c-6.19 0-11.534 3.6-14.134 8.827l5.252 4.12c1.254-3.8 4.751-6.614 8.882-6.614z" fill="#EA4335"/></svg>