<svg width="48" height="48" fill="none" xmlns="http://www.w3.org/2000/svg"><circle cx="24" cy="24" r="24" fill="url(#a)"/><path fill-rule="evenodd" clip-rule="evenodd" d="M24 8c-4.345 0-4.89.018-6.597.096-1.703.078-2.866.348-3.884.744a7.844 7.844 0 0 0-2.834 1.845A7.844 7.844 0 0 0 8.84 13.52c-.396 1.018-.666 2.181-.744 3.884C8.018 19.11 8 19.655 8 24c0 4.345.018 4.89.096 6.597.078 1.703.348 2.866.744 3.884a7.844 7.844 0 0 0 1.845 2.834 7.844 7.844 0 0 0 2.834 1.845c1.018.396 2.181.666 3.884.744C19.11 39.982 19.655 40 24 40c4.345 0 4.89-.018 6.597-.096 1.703-.078 2.866-.349 3.884-.744a7.844 7.844 0 0 0 2.834-1.845 7.844 7.844 0 0 0 1.845-2.834c.396-1.018.666-2.181.744-3.884C39.982 28.89 40 28.345 40 24c0-4.345-.018-4.89-.096-6.597-.078-1.703-.349-2.866-.744-3.884a7.844 7.844 0 0 0-1.845-2.834A7.844 7.844 0 0 0 34.48 8.84c-1.018-.396-2.181-.666-3.884-.744C28.89 8.018 28.345 8 24 8zm0 2.883c4.272 0 4.778.016 6.465.093 1.56.071 2.408.332 2.971.551.747.29 1.28.637 1.84 1.197s.907 1.093 1.197 1.84c.219.563.48 1.41.55 2.97.078 1.688.094 2.194.094 6.466s-.016 4.778-.093 6.465c-.071 1.56-.332 2.408-.551 2.971a4.954 4.954 0 0 1-1.197 1.84c-.56.56-1.093.907-1.84 1.197-.563.219-1.41.48-2.97.55-1.688.078-2.194.094-6.466.094-4.273 0-4.778-.016-6.465-.093-1.56-.071-2.408-.332-2.971-.551a4.954 4.954 0 0 1-1.84-1.197 4.955 4.955 0 0 1-1.197-1.84c-.219-.563-.48-1.41-.55-2.97-.078-1.688-.094-2.194-.094-6.466s.016-4.778.093-6.465c.071-1.56.332-2.408.551-2.971.29-.747.637-1.28 1.197-1.84a4.954 4.954 0 0 1 1.84-1.197c.563-.219 1.41-.48 2.97-.55 1.688-.078 2.194-.094 6.466-.094z" fill="#fff"/><path fill-rule="evenodd" clip-rule="evenodd" d="M24 29.333a5.333 5.333 0 1 1 0-10.666 5.333 5.333 0 0 1 0 10.666zm0-13.55a8.216 8.216 0 1 0 0 16.433 8.216 8.216 0 0 0 0-16.432zM34.461 15.46a1.92 1.92 0 1 1-3.84 0 1.92 1.92 0 0 1 3.84 0" fill="#fff"/><defs><linearGradient id="a" x1="24" y1="72" x2="72" y2="24" gradientUnits="userSpaceOnUse"><stop stop-color="#FFD522"/><stop offset=".497" stop-color="#F1000B"/><stop offset="1" stop-color="#B900B3"/></linearGradient></defs></svg>