<svg width="48" height="48" fill="none" xmlns="http://www.w3.org/2000/svg"><circle cx="24" cy="24" r="24" fill="#F06"/><path d="M15.151 15.643a2.83 2.83 0 0 0 2.797-2.849A2.83 2.83 0 0 0 15.096 10a2.83 2.83 0 0 0-2.824 2.821c.003.755.308 1.477.849 2.007.54.53 1.271.823 2.03.815zM9.181 30.748a9.59 9.59 0 0 0-.255 2.119c0 2.484 1.355 4.133 4.235 4.133 2.387 0 4.325-1.41 5.717-3.687l-.851 3.396h4.74l2.711-10.799c.678-2.737 1.989-4.157 3.98-4.157 1.566 0 2.54.968 2.54 2.569a5 5 0 0 1-.212 1.515l-1.396 4.966c-.2.684-.3 1.393-.296 2.105 0 2.356 1.396 4.084 4.317 4.084 2.498 0 4.489-1.598 5.589-5.429l-1.862-.717c-.932 2.569-1.736 3.032-2.37 3.032-.634 0-.976-.42-.976-1.263.018-.442.09-.88.211-1.305l1.357-4.84c.305-.995.462-2.03.466-3.07 0-3.62-2.202-5.509-4.87-5.509-2.498 0-5.038 2.24-6.308 4.599l.93-4.234H19.34l-1.017 3.731h3.389l-2.085 8.294c-1.64 3.62-4.65 3.68-5.027 3.595-.62-.14-1.015-.373-1.015-1.178a7.824 7.824 0 0 1 .296-1.926l3.176-12.525H9.015L8 21.977h3.344L9.18 30.748z" fill="#fff"/></svg>