<svg width="48" height="48" fill="none" xmlns="http://www.w3.org/2000/svg"><circle cx="24" cy="24" r="24" fill="url(#a)"/><path fill-rule="evenodd" clip-rule="evenodd" d="M8 23.52C8 14.602 14.987 8 24 8s16 6.602 16 15.52-6.987 15.52-16 15.52c-1.619 0-3.172-.214-4.631-.615a1.277 1.277 0 0 0-.855.063l-3.176 1.402a1.28 1.28 0 0 1-1.796-1.132l-.087-2.846a1.278 1.278 0 0 0-.43-.913C9.912 32.215 8 28.185 8 23.52zm11.092-2.918-4.7 7.457c-.451.715.429 1.522 1.103 1.01l5.048-3.831a.96.96 0 0 1 1.156-.003l3.739 2.803a2.4 2.4 0 0 0 3.47-.64l4.7-7.457c.45-.715-.429-1.522-1.102-1.01l-5.049 3.831a.96.96 0 0 1-1.157.003l-3.738-2.803a2.4 2.4 0 0 0-3.47.64z" fill="#fff"/><defs><radialGradient id="a" cx="0" cy="0" r="1" gradientUnits="userSpaceOnUse" gradientTransform="rotate(-57.092 48.502 15.38) scale(52.3006)"><stop stop-color="#09F"/><stop offset=".61" stop-color="#A033FF"/><stop offset=".935" stop-color="#FF5280"/><stop offset="1" stop-color="#FF7061"/></radialGradient></defs></svg>