<svg width="48" height="48" fill="none" xmlns="http://www.w3.org/2000/svg"><circle cx="24" cy="24" r="24" fill="#FFFEFC"/><path d="m11.697 11.208 15.61-1.144c1.917-.164 2.41-.053 3.615.816l4.982 3.484c.822.6 1.096.763 1.096 1.415v19.108c0 1.198-.438 1.906-1.972 2.014l-18.126 1.09c-1.151.054-1.7-.11-2.302-.872l-3.67-4.736c-.657-.872-.93-1.524-.93-2.287V13.112c0-.98.438-1.796 1.697-1.904z" fill="#fff"/><path fill-rule="evenodd" clip-rule="evenodd" d="m27.306 10.064-15.609 1.144c-1.259.108-1.697.925-1.697 1.904v16.985c0 .762.273 1.414.93 2.286l3.67 4.736c.603.762 1.15.926 2.302.871l18.126-1.089c1.533-.108 1.972-.816 1.972-2.014V15.78c0-.618-.246-.797-.971-1.325l-.125-.09-4.982-3.484c-1.206-.87-1.698-.98-3.616-.816zm-9.994 5.403c-1.48.099-1.816.121-2.657-.558l-2.137-1.687c-.217-.218-.108-.49.44-.545l15.005-1.088c1.26-.11 1.916.326 2.409.707l2.573 1.85c.11.056.384.382.055.382l-15.496.926-.192.013zm-1.726 19.257V18.503c0-.709.22-1.035.876-1.09l17.798-1.035c.604-.054.876.327.876 1.035v16.113c0 .708-.11 1.307-1.095 1.361l-17.032.98c-.985.054-1.423-.271-1.423-1.143zM32.4 19.373c.11.49 0 .98-.494 1.036l-.82.161v11.977c-.713.38-1.37.598-1.918.598-.876 0-1.095-.273-1.752-1.089l-5.368-8.383v8.11l1.698.383s0 .98-1.37.98l-3.777.217c-.11-.218 0-.762.383-.87l.986-.272V21.497l-1.369-.11c-.11-.49.164-1.198.931-1.253l4.053-.27 5.585 8.49v-7.511l-1.423-.163c-.11-.6.328-1.036.875-1.089l3.78-.218z" fill="#000"/></svg>