<svg width="48" height="48" fill="none" xmlns="http://www.w3.org/2000/svg"><circle cx="24" cy="24" r="24" fill="#E60023"/><path d="M24.528 8.9c8.32 0 14.792 5.932 14.792 13.86 0 8.272-5.214 14.928-12.454 14.928-2.43 0-4.72-1.26-5.5-2.756l-1.496 5.706c-.406 1.564-1.334 3.43-2.184 4.938l-.385.667-.36.603a22.972 22.972 0 0 1-1.704-.66l-.06-.594c-.17-1.858-.262-4.313.161-6.128l2.812-11.93-.097-.22-.102-.266-.079-.23-.082-.269-.082-.307a9.23 9.23 0 0 1-.04-.167l-.075-.36a9.429 9.429 0 0 1-.163-1.741c0-3.34 1.936-5.83 4.344-5.83 2.048 0 3.036 1.536 3.036 3.38 0 .883-.24 1.953-.569 3.112l-.23.785-.623 2.035c-.206.688-.403 1.38-.564 2.058-.566 2.39 1.196 4.34 3.552 4.34 4.264 0 7.544-4.5 7.544-10.992 0-5.744-4.13-9.764-10.026-9.764-6.83 0-10.84 5.124-10.84 10.416 0 2.064.796 4.276 1.788 5.48.196.234.224.444.166.686l-.666 2.72c-.106.44-.348.532-.8.32-3-1.394-4.874-5.78-4.874-9.3 0-7.568 5.5-14.52 15.86-14.52z" fill="#fff"/></svg>