<svg width="48" height="48" fill="none" xmlns="http://www.w3.org/2000/svg"><circle cx="24" cy="24" r="24" fill="#FF4500"/><path fill-rule="evenodd" clip-rule="evenodd" d="M37.81 21.135A3.456 3.456 0 0 1 40 24.21a3.448 3.448 0 0 1-1.946 3.146c.027.346.027.694 0 1.04 0 5.299-6.27 9.604-14.006 9.604-7.735 0-14.005-4.305-14.005-9.604a6.672 6.672 0 0 1 0-1.04A3.45 3.45 0 0 1 8 24.165a3.454 3.454 0 0 1 2.14-3.128 3.549 3.549 0 0 1 3.77.665 17.338 17.338 0 0 1 9.37-2.91l1.777-8.207a.733.733 0 0 1 .324-.467.754.754 0 0 1 .565-.101l5.886 1.16a2.42 2.42 0 0 1 2.941-1.018 2.359 2.359 0 0 1 1.484 2.7c-.245 1.137-1.294 1.929-2.472 1.87-1.18-.06-2.14-.954-2.265-2.11l-5.141-1.064-1.562 7.38c3.304.07 6.516 1.08 9.249 2.91a3.548 3.548 0 0 1 3.745-.71zM18.38 24.21c-1.327 0-2.402 1.059-2.402 2.365 0 .627.253 1.229.703 1.673.45.443 1.062.692 1.699.692 1.327 0 2.402-1.059 2.402-2.365 0-1.306-1.075-2.365-2.402-2.365zm11.555 8.87A9.324 9.324 0 0 1 24 34.9a9.324 9.324 0 0 1-5.933-1.821.632.632 0 0 1 .043-.857.656.656 0 0 1 .87-.042 7.942 7.942 0 0 0 4.996 1.49 7.968 7.968 0 0 0 5.021-1.443.679.679 0 0 1 .65-.163c.231.064.41.245.469.474a.654.654 0 0 1-.182.636v-.095zm-2.835-6.41c0 1.306 1.076 2.365 2.403 2.365l-.024.095a2.421 2.421 0 0 0 1.749-.718 2.345 2.345 0 0 0 .677-1.742c0-1.307-1.076-2.366-2.402-2.366-1.327 0-2.403 1.06-2.403 2.366z" fill="#fff"/></svg>