<svg width="48" height="48" fill="none" xmlns="http://www.w3.org/2000/svg"><circle cx="24" cy="24" r="24" fill="#FAFAFA"/><path fill-rule="evenodd" clip-rule="evenodd" d="M32.444 8.947a46.2 46.2 0 0 1-.315.305l-.188.209c-.288.32-.577.642-.851.975-.445.542-.88 1.09-1.286 1.663-.132.186-.132.186-.33.11l-.01-.003c-.92-.35-1.869-.594-2.838-.756a16.328 16.328 0 0 0-3.27-.194c-.765.027-1.529.076-2.283.218-.871.164-1.722.402-2.543.741-.13.053-.206.036-.3-.075-.468-.547-.942-1.088-1.42-1.626a53.028 53.028 0 0 0-.689-.753l-.34-.369c-.013-.014-.023-.03-.034-.045l-.015-.021-.227-.224-.56-.552c-.652-.645-1.34-1.25-2.114-1.747-.58-.373-1.192-.674-1.886-.782-.396-.062-.569.002-.782.341-.185.295-.299.62-.386.954-.16.613-.202 1.244-.225 1.874-.02.511-.013 1.023.012 1.535.026.525.064 1.049.118 1.571.053.508.122 1.014.197 1.52.017.114.038.23.059.344.039.21.078.422.092.636l.083.375c.061.275.123.55.181.824.118.554.263 1.1.418 1.645.203.713.433 1.417.71 2.105.03.07.008.134-.022.2a27.59 27.59 0 0 0-.84 1.987c-.043.115-.084.133-.165.026l-.008.023c-.005.012-.008.02-.006.022.111.116.067.233.023.35l-.016.044a20.657 20.657 0 0 0-.626 2.119c-.108.448-.207.897-.284 1.35a18.384 18.384 0 0 0-.218 1.692c-.03.388-.062.775-.068 1.165l.064-.011c.342-.058.685-.117 1.031-.145a9.528 9.528 0 0 1 2.224.06c1.99.306 3.578 1.314 4.905 2.782l.14.155.112-.258.22-.511c.224-.52.493-1.018.786-1.502.051-.084.1-.17.15-.255.16-.276.32-.553.535-.798.772-.88 1.679-1.553 2.806-1.905.57-.179 1.156-.3 1.753-.298 1.151.003 2.24.268 3.23.877a7.36 7.36 0 0 1 1.69 1.462c.14.161.257.339.35.53.068.141.138.28.207.42.246.494.492.989.67 1.514l.166.502.072.215.2-.2c.141-.141.28-.28.423-.416a8.59 8.59 0 0 1 2.627-1.729 8.312 8.312 0 0 1 2.364-.581c.71-.072 1.412-.038 2.115.036.148.015.294.04.441.064l.202.032c.04-.108.023-.216.007-.323-.008-.052-.016-.104-.017-.155a21.115 21.115 0 0 0-.252-2.667 17.709 17.709 0 0 0-.517-2.287c-.138-.46-.303-.91-.47-1.36a10.605 10.605 0 0 0-.514-1.112c-.12-.235-.24-.47-.348-.71-.096-.215-.151-.406-.069-.655.28-.848.52-1.71.747-2.573.193-.734.381-1.47.54-2.212.007-.03.017-.06.026-.09.005-.014.01-.028.013-.042a4.55 4.55 0 0 1 .075-.393c.019-.085.038-.17.053-.256l.016-.086c.098-.542.197-1.084.276-1.629.106-.725.18-1.453.207-2.185.035-.895 0-1.788-.234-2.661-.113-.425-.261-.832-.495-1.208-.054-.087-.11-.104-.2-.097-.638.05-1.238.239-1.816.499-.89.4-1.674.958-2.41 1.591-.295.253-.572.524-.85.795zm-.12 4.91c.041.072.105.121.17.17.037.03.076.06.11.094.114.117.23.234.346.35.288.288.575.575.84.887a20.33 20.33 0 0 1 1.656 2.255.39.39 0 0 1 .028.057c.02.049.041.097.098.101.02.002.057-.112.076-.176.066-.225.135-.448.205-.672.093-.302.186-.604.273-.908.172-.601.33-1.205.464-1.814.145-.667.27-1.338.347-2.018.051-.453.08-.906.098-1.36.014-.367-.027-.735-.067-1.101l-.012-.108-.01-.025c-.007-.018-.014-.035-.016-.053a3.556 3.556 0 0 0-.318-1.08c-.077-.17-.095-.17-.274-.1a8.852 8.852 0 0 0-1.759.939c-.862.593-1.648 1.28-2.401 2.005-.439.422-.857.864-1.265 1.316-.062.069-.077.106.012.172l.122.09c.294.213.587.427.87.656.041.034.081.072.121.109.087.081.175.162.285.213zm-21.32-5.353c.076-.17.094-.195.18-.183.224.067.45.165.666.272.47.232.918.503 1.347.802.412.287.8.603 1.183.926.53.447 1.026.926 1.516 1.413.19.189.37.386.553.582.096.105.193.21.29.313.058.06.062.1-.015.152-.42.283-.817.596-1.206.919-.419.348-.803.733-1.181 1.124a16.572 16.572 0 0 0-1.291 1.545 19.13 19.13 0 0 0-.91 1.353c-.011.02-.022.04-.049.04-.04 0-.052-.036-.061-.065l-.106-.336a38.84 38.84 0 0 1-.288-.94 46.17 46.17 0 0 1-.425-1.553 25.382 25.382 0 0 1-.447-2.223c-.044-.29-.08-.58-.105-.873-.037-.423-.072-.845-.05-1.269.034-.685.115-1.362.4-1.999zm6.713 12.678.15-.012c.276-.02.55-.073.81-.167.161-.058.31-.152.374-.32a1.49 1.49 0 0 0 .051-.952c-.143-.49-.503-.822-.892-1.126a1.415 1.415 0 0 0-1.142-.299c-.723.122-1.459.762-1.547 1.515-.04.331-.058.648.133.946.129.201.263.37.528.39l.055.005c.28.023.563.046.877.043.185.012.392-.005.603-.023zm13.043.027c.113.008.273-.005.446-.02l.232-.017c.229-.015.445-.067.585-.285.195-.305.275-.636.226-.99-.087-.623-.45-1.059-.976-1.367-.42-.246-.87-.324-1.341-.154-.275.1-.496.283-.703.478-.368.345-.65.74-.69 1.268-.039.485.158.777.617.912.493.146.999.164 1.604.175zm2.486 2.058v.046c-.002.055-.006.11-.01.166-.008.13-.017.258-.015.387.002.142-.063.241-.152.339-.336.37-.75.631-1.19.859a9.27 9.27 0 0 1-2.08.757c-.56.136-1.126.24-1.706.24-.155 0-.303-.029-.45-.064-.157-.038-.205-.123-.183-.268.073-.47.361-.808.683-1.123.337-.33.73-.585 1.123-.84l.245-.16a17.2 17.2 0 0 1 1.801-1.067c.441-.22.888-.431 1.387-.475.335-.03.336-.028.428.26l.014.044.013.039c.091.278.092.57.092.86zm-18.393-.002.009.122c.01.127.021.289.018.45-.005.207.095.345.232.477.566.545 1.261.867 1.984 1.139.47.177.95.314 1.441.422.492.109.987.187 1.49.201.18.005.36-.015.532-.073.147-.05.193-.12.169-.266-.02-.128-.06-.25-.118-.365-.225-.448-.573-.79-.976-1.07-1.04-.718-2.096-1.416-3.263-1.92-.355-.153-.72-.279-1.118-.274-.135.001-.194.057-.243.172-.111.262-.128.538-.15.885l-.007.1z" fill="#F4A817"/><path d="M38.675 28.763c.06-.16-.006-.32-.01-.478a20.944 20.944 0 0 0-.252-2.667 17.691 17.691 0 0 0-.517-2.287c-.138-.46-.303-.91-.47-1.36-.235-.632-.586-1.21-.862-1.823-.096-.214-.151-.405-.069-.654.28-.848.52-1.709.747-2.573.193-.734.381-1.47.54-2.212.01-.045.026-.088.04-.132.437.627.816 1.289 1.164 1.97.45.878.822 1.79 1.123 2.729a19.195 19.195 0 0 1 .642 8.85 18.448 18.448 0 0 1-2.36 6.474 17.55 17.55 0 0 1-4.696 5.19 16.715 16.715 0 0 1-5.596 2.686 16.06 16.06 0 0 1-2.463.441c-1.02.104-2.04.109-3.06.022a15.949 15.949 0 0 1-2.521-.427 16.008 16.008 0 0 1-3.275-1.208c-2.495-1.245-4.552-3.013-6.207-5.253a17.967 17.967 0 0 1-2.144-3.803 18.528 18.528 0 0 1-.807-2.377 18.816 18.816 0 0 1-.487-2.565 19.43 19.43 0 0 1-.076-3.804c.078-1.031.243-2.051.497-3.054a18.436 18.436 0 0 1 2.455-5.63c.005-.008.012-.015.018-.022.089.4.18.8.265 1.2.118.553.263 1.1.418 1.644.203.713.433 1.417.71 2.105.03.07.008.134-.023.199-.3.654-.59 1.312-.84 1.988-.042.115-.083.133-.164.026-.008.024-.018.041-.014.045.125.13.053.262.006.394a20.681 20.681 0 0 0-.625 2.119c-.108.448-.207.897-.284 1.35a18.36 18.36 0 0 0-.212 1.615c-.033.414-.068.827-.074 1.242a4.623 4.623 0 0 0 .15 1.52c.2.739.523 1.422.925 2.07.808 1.303 1.85 2.402 3.003 3.4a22.233 22.233 0 0 0 5.296 3.405c.378.175.754.353 1.146.498.29.107.58.208.87.308.181.063.365.129.549.185.682.21 1.38.352 2.089.42a9.165 9.165 0 0 0 2.413-.103c.716-.121 1.42-.296 2.11-.518.712-.23 1.406-.506 2.086-.82a20.863 20.863 0 0 0 2.767-1.538 18.554 18.554 0 0 0 2.359-1.836c.314-.289.628-.579.9-.91.035-.008.05-.034.063-.064h.008l.004-.009c.014-.012.03-.022.042-.036.502-.565.973-1.153 1.358-1.806.214-.363.443-.718.62-1.1a7.91 7.91 0 0 0 .67-2.187c.042-.279.065-.557.055-.839zM32.129 9.252c-.35.391-.706.778-1.04 1.184-.444.542-.88 1.09-1.285 1.663-.134.19-.132.186-.34.107-.92-.35-1.869-.594-2.839-.756a16.337 16.337 0 0 0-3.269-.194c-.765.027-1.529.076-2.283.218-.872.164-1.723.402-2.543.741-.13.053-.206.036-.301-.075-.467-.547-.941-1.088-1.42-1.626-.337-.378-.685-.748-1.028-1.122-.019-.02-.033-.044-.05-.066 1.001-.588 2.05-1.07 3.151-1.436a16.263 16.263 0 0 1 6.514-.767c.847.068 1.683.212 2.51.417 1.457.361 2.834.924 4.142 1.659.028.016.054.035.08.053z" fill="#F00500"/><path fill-rule="evenodd" clip-rule="evenodd" d="M34.955 35.714c.314-.289.628-.579.9-.91l-.009-.01-.016-.004c-.017-.004-.033-.007-.027-.032.001-.006.014-.01.027-.014a.194.194 0 0 0 .016-.006h.001c.004-.06.044-.092.088-.128l.04-.033c.003.03-.012.054-.027.077-.015.024-.03.047-.018.077a.39.39 0 0 1 .014-.011.192.192 0 0 0 .028-.025c.502-.565.973-1.153 1.359-1.806.047-.081.095-.161.144-.241.169-.281.337-.562.476-.86a7.911 7.911 0 0 0 .67-2.186c.041-.279.064-.557.054-.84l-.202-.031a7.65 7.65 0 0 0-.44-.064c-.704-.074-1.406-.108-2.116-.036a8.314 8.314 0 0 0-2.364.581 8.588 8.588 0 0 0-2.626 1.73c-.143.134-.282.273-.423.415l-.2.2-.086-.257a189.37 189.37 0 0 0-.154-.46c-.177-.525-.423-1.02-.67-1.514l-.206-.42a2.411 2.411 0 0 0-.35-.53 7.36 7.36 0 0 0-1.69-1.462c-.99-.61-2.078-.874-3.23-.877-.597-.002-1.182.12-1.753.298-1.127.352-2.033 1.025-2.805 1.905-.216.245-.376.522-.536.798l-.15.255c-.293.485-.562.981-.786 1.502l-.22.513-.111.256-.049-.053a32.47 32.47 0 0 1-.091-.102c-1.329-1.468-2.916-2.476-4.906-2.781a9.523 9.523 0 0 0-2.224-.06c-.347.027-.69.086-1.033.144l-.062.01a4.624 4.624 0 0 0 .15 1.521c.2.739.523 1.422.925 2.07.808 1.303 1.85 2.402 3.003 3.4a22.237 22.237 0 0 0 5.296 3.405l.13.06c.335.155.67.31 1.017.438a42.168 42.168 0 0 0 .98.347c.146.05.292.101.438.146.682.21 1.38.352 2.089.42a9.164 9.164 0 0 0 2.413-.103c.716-.121 1.42-.296 2.11-.518.712-.23 1.406-.506 2.086-.82a20.856 20.856 0 0 0 2.767-1.538 18.547 18.547 0 0 0 2.36-1.836zm-7.006-1.891h.296l-.077.318c-.07.288-.139.572-.206.856-.018.077-.07.078-.134.077-.222 0-.223.002-.303.21l-.001.003-.274.714-.001.002-.159.413c-.027-.052-.06-.1-.09-.146-.075-.11-.145-.216-.143-.36.003-.199.005-.397.006-.596.002-.245.003-.49.008-.735.003-.1-.015-.123-.12-.105-.93.162-1.868.242-2.812.207-.586-.023-1.17-.065-1.747-.184a1.255 1.255 0 0 0-.139-.017 1.994 1.994 0 0 1-.06-.006c0 .128 0 .256-.002.384-.002.307-.004.613.006.92.009.233-.008.448-.187.63-.154-.207-.25-.448-.333-.694l-.004-.011a2.548 2.548 0 0 1-.142-.548c-.014-.141-.112-.13-.198-.103-.13.04-.17 0-.196-.13a3.77 3.77 0 0 1-.07-.477.347.347 0 0 0-.133-.272c-.05-.039-.094-.083-.138-.128l-.063-.062c-.039-.037-.031-.084-.024-.128v-.002c.006-.038.034-.034.06-.03a.134.134 0 0 0 .019.001 178.96 178.96 0 0 0 1.137.006c.07 0 .129.012.13.1.001.056.037.058.078.06h.008c.494.027.988.027 1.482.028h.154c.058 0 .093-.017.12-.068.03-.054.063-.107.095-.16.035-.056.07-.113.101-.171.055-.1.106-.193.246-.158.064.016.076-.027.076-.082v-.028a73.017 73.017 0 0 1 0-1.025c0-.067-.037-.082-.08-.1l-.02-.008c-.53-.23-1.03-.507-1.437-.927-.335-.348-.542-.747-.512-1.249.01-.166.007-.334.005-.5a14.007 14.007 0 0 1-.003-.235c0-.52.345-.865.866-.865h2.565c.461 0 .928.471.912.932-.004.12-.003.241-.002.362a4.12 4.12 0 0 1-.045.785c-.102.553-.41.975-.85 1.309a2.53 2.53 0 0 1-.735.399c-.06.02-.075.049-.075.108.003.347.004.693 0 1.04-.001.075.024.1.094.089.112-.02.17.031.221.13l.04.082c.059.124.121.255.222.314.083.048.2.039.317.03.05-.005.098-.009.144-.008h.306c.203 0 .406 0 .61.006.104.002.174-.019.214-.12.016-.043.046-.078.103-.078h.874zm-3.713 1.196v-.005h-1.178c-.117 0-.175 0-.203.03-.027.028-.025.084-.02.197v.01c.002.062.031.09.075.119.084.055.177.092.27.13.034.013.07.027.104.042.088.038.135.03.17-.075.067-.197.076-.197.273-.184l.02.001c.07.005.108.037.14.09l.092.154.127.211c.114.189.298.2.441.029l.104-.123.083-.098c.103-.122.154-.183.21-.188.057-.005.118.047.24.152l.02.02c.026.025.05.05.096.039a.476.476 0 0 0 .354-.436c.004-.105-.04-.117-.128-.117-.317.003-.634.003-.951.002h-.338zm1.872 5.217h-.127c.049.03.086.02.127 0zm-.176.03c-.074.038-.139.062-.239.03.033-.003.062-.012.089-.02.05-.015.095-.028.15-.01zm9.805-5.415.022-.027-.014-.01-.003.006-.01.027-.024.03c-.04-.002-.057.018-.056.055l-.034.009.01.014.024-.022a.088.088 0 0 0 .056-.056l.03-.026z" fill="#FFFEFE"/><path d="M11.184 8.32c.224.068.45.166.666.273.47.232.918.503 1.348.802.41.287.799.603 1.182.926.53.447 1.026.926 1.516 1.413.29.29.562.597.844.895.057.06.061.1-.016.152-.419.283-.817.596-1.206.919-.419.348-.803.733-1.18 1.124a16.572 16.572 0 0 0-1.292 1.545c-.325.43-.615.883-.902 1.338-.015.023-.023.055-.057.055-.041 0-.052-.037-.061-.066-.133-.424-.27-.847-.394-1.275a45.873 45.873 0 0 1-.425-1.553 25.19 25.19 0 0 1-.447-2.222c-.044-.29-.079-.582-.105-.874-.037-.422-.072-.845-.05-1.269.034-.685.116-1.362.4-1.999.075-.17.093-.195.179-.183z" fill="#F28F1F"/><path d="M36.955 9.614c.044.402.095.805.08 1.209a18.51 18.51 0 0 1-.098 1.36c-.076.68-.202 1.351-.348 2.018-.133.61-.292 1.213-.463 1.814-.152.529-.322 1.052-.478 1.58-.02.064-.055.178-.077.176-.078-.005-.087-.098-.125-.158a19.642 19.642 0 0 0-1.656-2.255c-.371-.437-.788-.828-1.187-1.237-.09-.092-.213-.149-.28-.265.025-.032.056-.062.074-.098.174-.37.372-.726.583-1.076a9.574 9.574 0 0 1 1.086-1.492c.434-.48.924-.896 1.508-1.19.435-.219.89-.37 1.381-.386z" fill="#F28B20"/><path d="M14.854 23.265c.025-.394.034-.698.156-.985.05-.115.108-.17.243-.172.398-.005.763.12 1.118.274 1.167.504 2.223 1.201 3.263 1.92.403.28.751.622.976 1.07.059.115.097.237.118.365.024.146-.022.216-.169.266a1.52 1.52 0 0 1-.532.073 7.944 7.944 0 0 1-1.49-.2c-.49-.109-.972-.246-1.441-.423-.723-.272-1.418-.594-1.984-1.14-.136-.131-.237-.269-.232-.475.005-.221-.02-.443-.027-.573z" fill="#1F1712"/><path d="M33.246 23.313c-.01.184-.028.369-.025.553.002.142-.064.241-.152.339-.336.37-.75.631-1.19.859-.66.342-1.36.581-2.08.757-.56.136-1.126.24-1.707.24-.154 0-.302-.029-.45-.064-.156-.038-.204-.123-.182-.268.073-.47.36-.808.683-1.123.407-.398.896-.688 1.368-1a17.196 17.196 0 0 1 1.801-1.067c.44-.22.888-.431 1.387-.475.365-.032.333-.027.455.343.096.293.092.6.092.906z" fill="#1F1713"/><path d="M36.955 9.614c-.491.017-.946.167-1.381.386-.584.294-1.074.71-1.509 1.19a9.574 9.574 0 0 0-1.085 1.492c-.21.35-.409.706-.583 1.075-.018.037-.049.067-.074.1-.161-.075-.273-.214-.407-.323-.322-.261-.657-.502-.991-.746-.09-.066-.075-.103-.012-.172.407-.452.826-.894 1.264-1.316.753-.725 1.54-1.412 2.402-2.005a8.844 8.844 0 0 1 1.758-.939c.18-.07.197-.07.275.1.157.345.275.701.318 1.08.003.026.017.052.025.078z" fill="#F2991D"/><path d="M30.76 21.209c-.605-.01-1.111-.03-1.604-.175-.46-.135-.656-.427-.618-.912.042-.527.323-.923.69-1.268.208-.195.43-.379.704-.478.471-.17.92-.092 1.34.154.527.308.89.744.977 1.366.05.355-.031.686-.227.991-.139.218-.355.27-.584.285-.258.016-.515.049-.678.037zM17.114 21.205c-.335.003-.634-.023-.933-.047-.264-.021-.398-.19-.527-.39-.191-.3-.172-.616-.133-.947.088-.753.824-1.393 1.546-1.515.42-.07.803.036 1.142.3.39.303.75.634.893 1.125.091.316.066.642-.052.952-.063.168-.212.262-.373.32-.26.094-.534.146-.81.167-.261.02-.524.05-.753.035z" fill="#FFFEFE"/><path d="M35.846 34.739c.006-.079.07-.11.128-.162.007.065-.067.097-.044.154l-.004.008H35.846z" fill="#F6D9A7"/><path d="M35.846 34.739h.072c-.013.03-.028.058-.064.065l-.008-.01v-.056.001z" fill="#FFFEFE"/><path d="M28.244 33.823c-.096.398-.19.786-.282 1.174-.019.077-.07.078-.134.077-.224 0-.223.002-.304.213l-.434 1.129c-.093-.176-.237-.302-.233-.507.007-.443.005-.887.014-1.33.002-.101-.015-.123-.12-.105-.93.162-1.868.242-2.813.207-.585-.023-1.17-.066-1.746-.184-.067-.013-.137-.016-.199-.023 0 .436-.01.87.004 1.303.008.234-.009.449-.187.631-.154-.207-.25-.448-.333-.694-.062-.182-.125-.366-.146-.559-.015-.141-.112-.13-.198-.103-.13.04-.17 0-.196-.13a3.788 3.788 0 0 1-.07-.477.348.348 0 0 0-.134-.272c-.071-.057-.134-.127-.2-.19-.04-.038-.031-.086-.024-.13.008-.049.051-.029.079-.029.379.001.758.005 1.137.007.07 0 .129.01.13.099.001.06.042.057.086.06.545.03 1.09.027 1.636.029.058 0 .092-.018.12-.069.063-.112.134-.219.196-.331.055-.1.105-.193.246-.158.064.016.076-.027.076-.082-.002-.35-.003-.702 0-1.053 0-.077-.049-.086-.1-.108-.53-.23-1.03-.507-1.437-.928-.336-.347-.542-.746-.512-1.248.014-.244.002-.49.002-.735 0-.52.344-.865.866-.865h2.565c.46 0 .927.471.912.932-.013.383.023.767-.047 1.147-.103.553-.41.975-.85 1.309-.224.17-.466.31-.735.399-.06.02-.075.049-.075.108.003.347.004.693 0 1.04-.001.075.024.1.094.089.111-.02.17.031.221.13.072.143.139.324.261.396.118.068.305.02.462.022.305.002.61-.003.915.005.104.003.175-.017.215-.12.016-.042.046-.077.102-.077h1.17z" fill="#1D1919"/><path d="M24.236 35.02c.43 0 .86.001 1.29-.003.089 0 .132.012.128.117a.475.475 0 0 1-.354.436c-.059.013-.082-.03-.116-.059-.244-.209-.244-.209-.45.036l-.187.22c-.143.172-.327.16-.442-.028l-.218-.365c-.032-.053-.07-.085-.141-.09-.216-.014-.223-.02-.292.184-.035.104-.083.112-.17.074-.127-.054-.258-.096-.374-.172-.044-.029-.073-.057-.076-.119-.008-.237-.012-.237.224-.237h1.178v.005z" fill="#171413"/><path d="M25.694 40.297c.092-.011.152-.06.238-.03-.074.037-.139.06-.238.03zM26.107 40.236c-.04.02-.078.03-.126 0h.126zM35.847 34.738v.056c-.02-.008-.053-.002-.044-.036.002-.01.029-.013.044-.02zM35.652 34.932c-.001-.038.016-.057.055-.055a.088.088 0 0 1-.055.056z" fill="#F6D9A7"/><path d="m35.653 34.933-.026.023-.01-.015.035-.009zM35.246 35.33l-.001.01c-.003.002-.01.004-.012.002-.013-.006-.012-.012.001-.017.004 0 .008.003.012.004z" fill="#F7DDB0"/><path d="m35.733 34.847.011-.034.015.01-.022.028-.004-.004z" fill="#F6D9A7"/><path d="m35.707 34.877.027-.03.004.003-.03.027z" fill="#F6D9A7"/><path d="m35.567 35.014.013-.019c.018.016 0 .018-.009.023l-.004-.005z" fill="#F7DDB0"/><path d="m35.571 35.018-.016.011.012-.016.004.005zM35.5 35.078l.003.01-.008-.002.005-.008zM35.425 35.15c.006-.01.01-.025.024-.008l-.016.016-.008-.008z" fill="#F7DDB0"/><path d="m35.434 35.158-.018.01a.651.651 0 0 0 .01-.019l.008.009zM35.361 35.202l-.002-.008.007.001-.005.007zM35.277 35.285l-.002-.008.007.001-.005.008z" fill="#F7DDB0"/></svg>