<svg width="48" height="48" fill="none" xmlns="http://www.w3.org/2000/svg"><circle cx="24" cy="24" r="24" fill="#4A154B"/><path fill-rule="evenodd" clip-rule="evenodd" d="M16.533 11.2a3.2 3.2 0 0 1 6.4 0v3.2h-3.2c-.85-.001-1.664-.339-2.264-.939-.6-.6-.937-1.413-.936-2.261zM11.2 16.533h8.533a3.2 3.2 0 0 1 0 6.4H11.2a3.2 3.2 0 0 1 0-6.4zM31.466 11.2v8.534a3.2 3.2 0 1 1-6.4-.001V11.2a3.2 3.2 0 0 1 6.4 0zm5.334 5.333a3.2 3.2 0 0 1 0 6.4h-3.2v-3.2a3.2 3.2 0 0 1 3.2-3.2z" fill="#097EFF"/><path fill-rule="evenodd" clip-rule="evenodd" d="M36.8 31.467h-8.534c-.85-.001-1.664-.339-2.264-.94a3.2 3.2 0 0 1 2.264-5.461H36.8a3.2 3.2 0 0 1 0 6.401zM31.467 36.8a3.2 3.2 0 0 1-6.4 0v-3.2h3.2a3.2 3.2 0 0 1 3.2 3.2zM8.936 30.528a3.2 3.2 0 0 1 2.264-5.461h3.2v3.2a3.2 3.2 0 0 1-5.464 2.26zm7.597 6.272v-8.533a3.2 3.2 0 0 1 6.4 0V36.8a3.2 3.2 0 0 1-6.4 0z" fill="#ECB12F"/></svg>