<svg width="48" height="48" fill="none" xmlns="http://www.w3.org/2000/svg"><circle cx="24" cy="24" r="24" fill="#FFFC00"/><path d="M39.016 31.754c-.131-.441-.76-.752-.76-.752l-.156-.083a12.11 12.11 0 0 1-2.756-1.834 9.447 9.447 0 0 1-1.597-1.848c-.528-.806-.775-1.479-.881-1.844-.06-.238-.05-.333 0-.457.04-.105.162-.203.219-.25.353-.254.922-.629 1.271-.857.304-.2.563-.372.716-.48.49-.349.828-.704 1.025-1.088a1.903 1.903 0 0 0 .088-1.578c-.269-.724-.935-1.155-1.782-1.155a2.77 2.77 0 0 0-.575.063 8.878 8.878 0 0 0-1.328.435.04.04 0 0 1-.056-.041c.04-.968.087-2.27-.019-3.504-.094-1.117-.322-2.06-.69-2.882-.372-.825-.857-1.435-1.235-1.876a7.62 7.62 0 0 0-1.95-1.593c-1.344-.781-2.875-1.178-4.55-1.178-1.672 0-3.2.397-4.547 1.178a7.69 7.69 0 0 0-1.954 1.593c-.378.441-.862 1.05-1.234 1.876-.372.822-.597 1.761-.69 2.882-.107 1.24-.063 2.437-.02 3.504 0 .032-.028.054-.059.041a8.876 8.876 0 0 0-1.328-.435 2.724 2.724 0 0 0-.575-.063c-.844 0-1.51.431-1.781 1.155-.2.537-.17 1.082.087 1.578.2.384.534.74 1.025 1.088.15.108.413.28.716.48.34.225.893.59 1.25.84.043.032.194.147.24.267.05.127.06.223-.006.476a7.041 7.041 0 0 1-.875 1.825 9.356 9.356 0 0 1-1.597 1.848c-.781.701-1.71 1.32-2.756 1.834-.05.026-.11.054-.172.092 0 0-.625.324-.744.743-.175.619.29 1.2.763 1.51.775.509 1.718.782 2.265.93.154.042.291.08.416.118.078.026.275.102.36.213.106.14.118.31.156.505.059.326.193.73.59 1.009.438.304.991.327 1.694.355.735.029 1.647.064 2.694.416.485.162.925.438 1.431.755 1.063.664 2.385 1.49 4.641 1.49 2.26 0 3.591-.83 4.66-1.496.506-.314.94-.587 1.416-.746 1.047-.352 1.96-.387 2.694-.416.703-.028 1.256-.047 1.693-.355.425-.298.547-.743.604-1.076.03-.165.05-.314.143-.435.082-.105.263-.178.347-.206.128-.041.272-.08.431-.124.547-.15 1.235-.324 2.07-.803 1.006-.58 1.074-1.292.968-1.644z" fill="#fff"/><path fill-rule="evenodd" clip-rule="evenodd" d="M38.757 30.196c.481.273.906.6 1.128 1.215.25.689.097 1.467-.506 2.133l-.01.01c-.221.25-.5.47-.859.67a8.81 8.81 0 0 1-2.028.821c-.103.032-.294.099-.382.175-.121.107-.172.244-.236.414a2.742 2.742 0 0 1-.198.44c-.206.362-.469.6-.675.746-.66.462-1.399.492-2.184.523h-.012c-.708.03-1.513.061-2.43.369-.355.12-.735.354-1.172.625l-.046.028-.01.007C28.028 39.06 26.514 40 23.997 40c-2.522 0-4.032-.94-5.132-1.628-.456-.286-.853-.533-1.234-.66-.917-.308-1.721-.34-2.43-.368H15.189c-.784-.032-1.525-.062-2.183-.524a2.28 2.28 0 0 1-.59-.613 2.446 2.446 0 0 1-.284-.577c-.063-.17-.113-.306-.235-.413-.094-.086-.31-.156-.403-.184a8.788 8.788 0 0 1-2-.813 3.273 3.273 0 0 1-.82-.628c-.646-.676-.815-1.48-.559-2.184.288-.796.913-1.114 1.569-1.448.113-.058.227-.116.341-.177 1.453-.8 2.594-1.803 3.39-2.987.27-.4.46-.761.591-1.057.079-.216.079-.333.025-.44a.758.758 0 0 0-.218-.223c-.25-.168-.503-.337-.678-.45-.322-.21-.575-.378-.741-.496-.616-.438-1.05-.904-1.319-1.425a2.874 2.874 0 0 1-.134-2.358c.406-1.092 1.425-1.771 2.656-1.771.253 0 .516.028.772.085l.1.024.1.024c-.01-.743.006-1.536.072-2.31.231-2.73 1.172-4.162 2.153-5.301a8.529 8.529 0 0 1 2.194-1.793C20.477 8.438 22.165 8 24 8c1.84 0 3.528.438 5.019 1.308a8.605 8.605 0 0 1 2.19 1.793c.982 1.14 1.923 2.57 2.154 5.3.065.775.084 1.568.072 2.311.065-.016.131-.032.2-.047.256-.058.515-.086.772-.086 1.231 0 2.25.68 2.656 1.77a2.874 2.874 0 0 1-.134 2.36c-.27.52-.7.986-1.32 1.424-.142.1-.357.242-.625.42l-.115.075c-.181.118-.447.293-.706.467a.665.665 0 0 0-.194.203c-.05.105-.053.22.016.422.134.302.325.67.6 1.08.812 1.209 1.987 2.23 3.49 3.04l.176.09c.088.045.176.09.262.136.069.031.153.076.244.13zm-2.993 3.163c.516-.139 1.13-.304 1.88-.726.872-.489.375-.79.094-.933-4.956-2.434-5.747-6.199-5.782-6.481l-.003-.03c-.043-.325-.076-.586.278-.92.241-.226 1.048-.757 1.675-1.17.293-.192.547-.36.685-.457.719-.511 1.038-1.023.803-1.65-.162-.433-.562-.598-.984-.598-.131 0-.266.016-.394.045-.465.102-.923.284-1.31.439-.273.107-.51.202-.693.246a.637.637 0 0 1-.163.023c-.234 0-.322-.108-.303-.397l.006-.093c.058-.903.164-2.555.032-4.103-.188-2.206-.888-3.298-1.72-4.263-.4-.463-2.265-2.475-5.859-2.475-3.585 0-5.46 2.012-5.86 2.475-.831.968-1.531 2.06-1.719 4.263-.125 1.458-.032 3.009.023 3.938l.015.258c.016.276-.066.397-.303.397a.656.656 0 0 1-.163-.023 5.964 5.964 0 0 1-.692-.246c-.388-.155-.846-.337-1.31-.44a1.826 1.826 0 0 0-.395-.044c-.422 0-.822.162-.984.597-.235.628.081 1.14.803 1.65.138.099.392.266.685.459.627.412 1.434.943 1.675 1.17.355.336.32.597.278.92l-.003.029c-.038.282-.826 4.047-5.782 6.481-.29.143-.784.444.088.933.747.418 1.358.583 1.873.722.428.116.79.214 1.111.424.325.213.37.559.413.88.035.272.069.526.268.666.232.164.663.18 1.244.203.756.03 1.767.069 2.925.457.578.194 1.08.507 1.61.837 1.038.648 2.179 1.36 4.197 1.36 2.02 0 3.174-.72 4.216-1.369.526-.327 1.024-.637 1.59-.828 1.159-.388 2.169-.427 2.925-.457.58-.023 1.011-.04 1.244-.203.2-.14.233-.394.27-.666.041-.321.087-.667.412-.88.319-.208.679-.305 1.104-.42z" fill="#000"/></svg>