<svg width="128" height="128" fill="none" xmlns="http://www.w3.org/2000/svg"><g filter="url(#a)"><rect x="40" y="36" width="48" height="48" rx="24" fill="#fff"/></g><path opacity=".45" d="m68.196 46.261-4.287 7.62h-8.568l4.283-7.62h8.572z" fill="#000"/><path opacity=".6" d="M63.91 53.881h8.57l-4.284-7.62h-8.572l4.285 7.62z" fill="#000"/><path opacity=".8" d="m59.624 61.497 4.285-7.616-4.285-7.62-4.283 7.62 4.283 7.616z" fill="#000"/><path opacity=".45" d="m59.666 72.927 4.288-7.62h8.57l-4.286 7.62h-8.572z" fill="#000"/><path opacity=".6" d="M63.953 65.308h-8.57l4.283 7.619h8.572l-4.285-7.62z" fill="#000"/><path opacity=".8" d="m68.238 57.69-4.284 7.618 4.284 7.619 4.287-7.62-4.287-7.616z" fill="#000"/><defs><filter id="a" x="0" y="0" width="128" height="128" filterUnits="userSpaceOnUse" color-interpolation-filters="sRGB"><feFlood flood-opacity="0" result="BackgroundImageFix"/><feColorMatrix in="SourceAlpha" values="0 0 0 0 0 0 0 0 0 0 0 0 0 0 0 0 0 0 127 0" result="hardAlpha"/><feOffset dy="4"/><feGaussianBlur stdDeviation="20"/><feComposite in2="hardAlpha" operator="out"/><feColorMatrix values="0 0 0 0 0.0367917 0 0 0 0 0.0348958 0 0 0 0 0.0484375 0 0 0 0.1 0"/><feBlend in2="BackgroundImageFix" result="effect1_dropShadow_174_1686"/><feBlend in="SourceGraphic" in2="effect1_dropShadow_174_1686" result="shape"/></filter></defs></svg>