<svg width="48" height="48" fill="none" xmlns="http://www.w3.org/2000/svg"><circle cx="24" cy="24" r="24" fill="url(#a)"/><path fill-rule="evenodd" clip-rule="evenodd" d="M37.035 22.4c-.621 0-1.215.111-1.763.312C34.635 18.906 31.221 16 27.103 16c0 0-3.724 0-3.724 2v12.799c0 .662.556 1.201 1.242 1.201h12.414C39.776 32 42 29.85 42 27.2s-2.223-4.8-4.965-4.8zm-16.138 5.2.206 3.8c0 .331.278.6.621.6a.61.61 0 0 0 .62-.6l.208-3.8-.207-9.4a.61.61 0 0 0-.62-.6.61.61 0 0 0-.622.6l-.206 9.4zm-2.483 0 .207 3.8c0 .331.278.6.62.6a.61.61 0 0 0 .621-.6l.207-3.8-.207-7a.61.61 0 0 0-.62-.6.61.61 0 0 0-.621.6l-.207 7zm-2.276 3.8-.207-3.8.207-7.8c0-.331.278-.6.62-.6a.61.61 0 0 1 .621.6l.207 7.8-.207 3.8a.61.61 0 0 1-.62.6.61.61 0 0 1-.621-.6zm-2.69-3.8.207 3.8c0 .331.278.6.62.6a.61.61 0 0 0 .622-.6l.206-3.8-.206-6.2a.61.61 0 0 0-.621-.6.61.61 0 0 0-.62.6l-.208 6.2zm-2.276 3.8-.207-3.8.207-3c0-.331.278-.6.621-.6a.61.61 0 0 1 .62.6l.208 3-.207 3.8a.61.61 0 0 1-.62.6.61.61 0 0 1-.622-.6zm-2.69-3.8.208 3.8c0 .331.278.6.62.6a.61.61 0 0 0 .621-.6l.207-3.8-.207-3.8a.61.61 0 0 0-.62-.6.61.61 0 0 0-.621.6l-.207 3.8zm-2.275 2.2L6 27.6l.207-2.2c0-.331.278-.6.62-.6a.61.61 0 0 1 .621.6l.207 2.2-.207 2.2a.61.61 0 0 1-.62.6.61.61 0 0 1-.621-.6z" fill="#fff"/><defs><linearGradient id="a" x1="0" y1="0" x2="0" y2="48" gradientUnits="userSpaceOnUse"><stop stop-color="#F70"/><stop offset="1" stop-color="#F30"/></linearGradient></defs></svg>