<svg width="48" height="48" fill="none" xmlns="http://www.w3.org/2000/svg"><circle cx="24" cy="24" r="24" fill="#1ED760"/><path d="M38.197 21.276a2.244 2.244 0 1 0 2.29-3.86c-8.905-5.287-22.998-5.785-31.476-3.21a2.245 2.245 0 0 0 1.303 4.295c7.386-2.241 20.146-1.819 27.883 2.775zM37.944 28.081a1.87 1.87 0 0 0-.616-2.572c-7.408-4.552-18.244-5.834-26.96-3.188a1.874 1.874 0 0 0-1.249 2.333 1.874 1.874 0 0 0 2.336 1.246c7.63-2.316 17.465-1.167 23.915 2.798.88.54 2.03.264 2.574-.617zM35.007 34.617a1.497 1.497 0 0 0-.496-2.058c-6.326-3.865-14.168-4.765-23.31-2.675a1.495 1.495 0 1 0 .665 2.916c8.355-1.908 15.448-1.13 21.084 2.314.705.431 1.626.21 2.057-.497z" fill="#fff"/></svg>