<svg width="48" height="48" fill="none" xmlns="http://www.w3.org/2000/svg"><circle cx="24" cy="24" r="24" fill="#fff"/><path fill-rule="evenodd" clip-rule="evenodd" d="M31.924 9C36.93 9 41 13.056 41 18.04c0 4.986-4.071 9.042-9.076 9.042l-.206-.003-8.18 5.814.005.16.002.161c0 3.743-3.056 6.786-6.812 6.786a6.817 6.817 0 0 1-6.627-5.212l-.052-.237-9.141-3.763A23.939 23.939 0 0 1 0 24.219c0-.637.025-1.268.074-1.892l12.825 5.282.238-.155a6.786 6.786 0 0 1 3.596-1.026l.19.003.19.009 5.736-8.282v-.117c0-4.985 4.07-9.041 9.075-9.041zm0 3.017c-3.334 0-6.048 2.702-6.048 6.024s2.713 6.023 6.048 6.023 6.047-2.702 6.047-6.023c0-3.322-2.712-6.024-6.047-6.024zM15.16 28.359a5.101 5.101 0 0 1 3.53.14 5.068 5.068 0 0 1 2.761 2.762 5.034 5.034 0 0 1-.007 3.896c-1.085 2.594-4.084 3.823-6.685 2.744a5.073 5.073 0 0 1-2.524-2.282l-.11-.214 2.956 1.216.187.072a3.767 3.767 0 0 0 4.735-2.09 3.743 3.743 0 0 0-1.844-4.822l-.182-.081-3.054-1.258.237-.083z" fill="#171A21"/><path d="M31.934 13.505c2.51 0 4.544 2.026 4.544 4.525 0 2.5-2.035 4.525-4.544 4.525-2.509 0-4.543-2.026-4.543-4.525 0-2.499 2.034-4.525 4.543-4.525z" fill="#171A21"/></svg>