<svg width="48" height="48" fill="none" xmlns="http://www.w3.org/2000/svg"><circle cx="24" cy="24" r="24" fill="url(#a)"/><path d="M10.787 24.04c6.98-2.963 11.634-4.917 13.962-5.861 6.649-2.695 8.03-3.163 8.931-3.179.198-.003.64.045.928.271.242.192.309.45.34.632.032.182.072.596.04.919-.36 3.69-1.919 12.643-2.712 16.775-.336 1.749-.996 2.335-1.636 2.393-1.39.124-2.446-.896-3.793-1.756-2.107-1.346-3.297-2.184-5.343-3.498-2.363-1.518-.831-2.352.516-3.716.353-.357 6.478-5.787 6.597-6.28.015-.062.028-.291-.111-.412-.14-.122-.347-.08-.496-.047-.212.046-3.578 2.215-10.099 6.505-.955.64-1.82.951-2.596.935-.855-.018-2.5-.471-3.721-.859-1.5-.475-2.691-.726-2.588-1.532.054-.42.648-.85 1.781-1.29z" fill="#fff"/><defs><linearGradient id="a" x1=".178" y1="0" x2=".178" y2="47.644" gradientUnits="userSpaceOnUse"><stop stop-color="#2AABEE"/><stop offset="1" stop-color="#229ED9"/></linearGradient></defs></svg>