<svg width="48" height="48" fill="none" xmlns="http://www.w3.org/2000/svg"><rect width="48" height="48" rx="24" fill="#fff"/><path d="M15.507 28.267c.176-1.456.773-2.271 1.898-3.106 1.61-1.132 3.62-.492 3.62-.492v-3.797c.49-.012.978.017 1.462.087v4.886s-2.01-.64-3.62.492c-1.125.835-1.723 1.65-1.898 3.106-.005.79.143 1.824.826 2.717a6.65 6.65 0 0 1-.516-.296c-1.505-1.01-1.78-2.526-1.772-3.597zM30.79 13.85c-1.107-1.213-1.526-2.438-1.677-3.299h1.393s-.278 2.257 1.746 4.476l.028.03a8.027 8.027 0 0 1-1.49-1.207zm6.71 3.44v4.789s-1.777-.07-3.092-.405c-1.837-.468-3.018-1.186-3.018-1.186s-.815-.512-.881-.547v9.887c0 .55-.15 1.926-.61 3.072-.6 1.5-1.527 2.485-1.697 2.687 0 0-1.126 1.33-3.113 2.227-1.791.808-3.364.788-3.834.808 0 0-2.718.108-5.164-1.481a10.267 10.267 0 0 1-1.475-1.186l.012.009c2.447 1.59 5.165 1.482 5.165 1.482.47-.02 2.043 0 3.833-.809 1.985-.896 3.113-2.227 3.113-2.227.169-.201 1.1-1.186 1.697-2.687.458-1.146.61-2.521.61-3.072v-9.886c.066.036.881.548.881.548s1.181.718 3.018 1.186c1.316.335 3.093.404 3.093.404v-3.752c.608.136 1.127.173 1.463.14z" fill="#EE1D52"/><path d="M36.038 17.152v3.751s-1.777-.07-3.093-.404c-1.837-.468-3.018-1.186-3.018-1.186s-.815-.512-.88-.548v9.888c0 .55-.152 1.926-.611 3.073-.6 1.5-1.526 2.485-1.697 2.686 0 0-1.127 1.331-3.113 2.227-1.79.81-3.363.789-3.834.81 0 0-2.717.107-5.164-1.483l-.012-.009a9.33 9.33 0 0 1-.728-.79c-.781-.953-1.26-2.078-1.38-2.4v-.004c-.193-.558-.6-1.898-.544-3.196.098-2.29.904-3.697 1.117-4.049a9.622 9.622 0 0 1 2.169-2.54 9.15 9.15 0 0 1 2.577-1.462 8.968 8.968 0 0 1 3.199-.644v3.797s-2.011-.638-3.62.492c-1.125.835-1.722 1.65-1.898 3.106-.007 1.07.267 2.587 1.77 3.598.175.111.348.21.517.296.262.341.582.639.946.88 1.468.93 2.699.995 4.273.391 1.05-.404 1.839-1.313 2.205-2.321.23-.63.227-1.264.227-1.919v-18.64h3.663c.151.86.57 2.086 1.677 3.3.445.457.945.862 1.49 1.206.162.166.986.99 2.044 1.497a8.198 8.198 0 0 0 1.718.597z" fill="#000"/><path d="M11.05 31.602v.003l.091.246c-.01-.029-.044-.116-.09-.25z" fill="#69C9D0"/><path d="M17.827 21.516a9.148 9.148 0 0 0-2.577 1.462 9.623 9.623 0 0 0-2.169 2.545c-.213.351-1.018 1.759-1.117 4.049-.055 1.298.351 2.639.545 3.197v.004c.122.318.599 1.444 1.38 2.399.226.276.47.54.728.79a10.015 10.015 0 0 1-2.19-1.968c-.775-.943-1.252-2.057-1.377-2.386a.04.04 0 0 1 0-.007v-.004c-.194-.558-.601-1.899-.545-3.199.099-2.29.904-3.696 1.117-4.048a9.61 9.61 0 0 1 2.169-2.545 9.135 9.135 0 0 1 2.577-1.463 9.12 9.12 0 0 1 1.818-.512 9.42 9.42 0 0 1 2.843-.04v1.082a8.965 8.965 0 0 0-3.202.644z" fill="#69C9D0"/><path d="M29.112 10.552h-3.663v18.64c0 .656 0 1.288-.227 1.92-.37 1.007-1.157 1.917-2.205 2.32-1.575.606-2.805.539-4.273-.39a3.95 3.95 0 0 1-.95-.878c1.252.64 2.371.628 3.758.095 1.048-.404 1.836-1.314 2.205-2.322.23-.63.228-1.263.228-1.918V9.375h5.057s-.057.463.07 1.177zm6.926 5.563v1.037a8.197 8.197 0 0 1-1.716-.597c-1.057-.506-1.882-1.33-2.043-1.497.187.117.381.224.581.32 1.287.616 2.553.8 3.178.737z" fill="#69C9D0"/></svg>