<svg width="48" height="48" fill="none" xmlns="http://www.w3.org/2000/svg"><path d="M24 0C10.762 0 0 10.762 0 24c0 13.237 10.762 24 24 24 13.237 0 24-10.763 24-24C48 10.762 37.237 0 24 0z" fill="url(#a)"/><path fill-rule="evenodd" clip-rule="evenodd" d="M19.191 21.36c-.03.01-.064 0-.084-.023-.933-1.228-1.167-3.34-1.224-4.15-.012-.156-.188-.244-.33-.166C14.673 18.63 12 22.435 12 26.108c0 6.312 4.41 11.606 12 11.606 7.112 0 12-5.457 12-11.605 0-8.045-5.783-13.39-10.934-15.806-.12-.056-.28.06-.262.191.663 4.336-.253 9.05-5.613 10.866z" fill="#fff"/><defs><radialGradient id="a" cx="0" cy="0" r="1" gradientUnits="userSpaceOnUse" gradientTransform="translate(24 48) scale(51.2798)"><stop stop-color="#FF7854"/><stop offset="1" stop-color="#FD267D"/></radialGradient></defs></svg>