<svg width="48" height="48" fill="none" xmlns="http://www.w3.org/2000/svg"><circle cx="24" cy="24" r="24" fill="#026AA7"/><path fill-rule="evenodd" clip-rule="evenodd" d="M33.15 12H14.854A2.854 2.854 0 0 0 12 14.85v18.284A2.856 2.856 0 0 0 14.853 36h18.298A2.852 2.852 0 0 0 36 33.134V14.85A2.854 2.854 0 0 0 33.15 12zm-10.8 17.286a.955.955 0 0 1-.96.95h-4a.95.95 0 0 1-.945-.95V17.38a.95.95 0 0 1 .946-.95h3.998a.954.954 0 0 1 .95.95l.012 11.907zm8.946-4.79a.95.95 0 0 0 .282-.677l-.015-6.44a.95.95 0 0 0-.946-.95h-3.999a.954.954 0 0 0-.95.95v6.44a.954.954 0 0 0 .95.95h3.999a.95.95 0 0 0 .68-.274z" fill="#fff"/></svg>