<svg width="48" height="48" fill="none" xmlns="http://www.w3.org/2000/svg"><circle cx="24" cy="24" r="24" fill="#1D9BF0"/><path d="M36.724 17.473c.02.282.02.564.02.849 0 8.674-6.605 18.678-18.68 18.678v-.005A18.587 18.587 0 0 1 8 34.052a13.184 13.184 0 0 0 9.716-2.72 6.573 6.573 0 0 1-6.133-4.56c.984.19 1.998.151 2.964-.113a6.565 6.565 0 0 1-5.266-6.434v-.084c.912.509 1.934.79 2.98.822a6.573 6.573 0 0 1-2.033-8.765 18.634 18.634 0 0 0 13.53 6.858 6.573 6.573 0 0 1 11.188-5.987c1.471-.29 2.88-.83 4.17-1.594a6.59 6.59 0 0 1-2.886 3.63A13.056 13.056 0 0 0 40 14.072a13.334 13.334 0 0 1-3.276 3.4z" fill="#fff"/></svg>