<svg width="48" height="48" fill="none" xmlns="http://www.w3.org/2000/svg"><circle cx="24" cy="24" r="24" fill="#00ADEF"/><path d="M39.416 21.323c-.911 2.75-2.896 6.117-5.954 10.096C29.11 37.14 25.429 40 22.417 40c-1.865 0-3.444-1.742-4.733-5.225l-2.584-9.58c-.957-3.483-1.984-5.226-3.083-5.226-.24 0-1.077.51-2.51 1.524L8 19.53a407.876 407.876 0 0 0 4.67-4.213c2.107-1.841 3.688-2.808 4.743-2.906 2.49-.243 4.023 1.48 4.599 5.166.621 3.977 1.052 6.45 1.294 7.418.718 3.299 1.508 4.948 2.371 4.948.669 0 1.676-1.07 3.018-3.21 1.34-2.14 2.057-3.77 2.154-4.889.192-1.847-.526-2.772-2.155-2.772-.766 0-1.556.178-2.368.53 1.572-5.212 4.578-7.741 9.013-7.597 2.962.088 4.514 1.847 4.654 5.275.044 1.485-.123 3.06-.577 4.042z" fill="#fff"/></svg>