<svg width="48" height="48" fill="none" xmlns="http://www.w3.org/2000/svg"><circle cx="24" cy="24" r="24" fill="#4353FF"/><path d="M32.736 20.444s-2.595 8.083-2.806 8.75C29.853 28.508 27.95 14 27.95 14c-4.42 0-6.784 3.127-8.034 6.425 0 0-3.151 8.102-3.42 8.788-.02-.629-.481-8.693-.481-8.693-.27-4.042-3.998-6.5-7.015-6.5L12.652 36c4.632-.02 7.13-3.127 8.437-6.425 0 0 2.787-7.149 2.902-7.473C24.011 22.407 25.99 36 25.99 36c4.65 0 7.15-2.917 8.495-6.1L41 14.02c-4.593 0-7.015 3.107-8.264 6.424z" fill="#fff"/></svg>