<svg width="48" height="48" fill="none" xmlns="http://www.w3.org/2000/svg"><circle cx="24" cy="24" r="24" fill="url(#a)"/><path fill-rule="evenodd" clip-rule="evenodd" d="M10.26 31.783 8 40l8.447-2.205a15.979 15.979 0 0 0 7.613 1.93h.007c8.781 0 15.93-7.114 15.933-15.856a15.827 15.827 0 0 0-4.664-11.22A15.97 15.97 0 0 0 24.066 8C15.285 8 8.138 15.113 8.135 23.856a15.773 15.773 0 0 0 2.126 7.927zm7.062 3.427-.484-.285-5.012 1.308 1.338-4.864-.316-.498a13.102 13.102 0 0 1-2.024-7.014c.003-7.267 5.943-13.179 13.248-13.179 7.314.003 13.24 5.908 13.238 13.19-.003 7.267-5.944 13.18-13.243 13.18h-.005c-2.372 0-4.7-.635-6.74-1.838z" fill="url(#b)"/><path fill-rule="evenodd" clip-rule="evenodd" d="M20.085 17.227c-.298-.66-.612-.673-.896-.684-.232-.01-.498-.01-.763-.01-.408.011-.793.19-1.062.496-.365.397-1.393 1.356-1.393 3.306s1.426 3.834 1.625 4.099c.2.265 2.755 4.393 6.8 5.982 3.364 1.32 4.048 1.058 4.778.992.73-.066 2.355-.959 2.687-1.884.332-.926.332-1.72.232-1.885-.099-.165-.365-.264-.763-.462s-2.355-1.157-2.72-1.29c-.365-.132-.63-.198-.896.2-.265.396-1.028 1.288-1.26 1.552-.233.265-.465.298-.863.1-.398-.198-1.68-.617-3.201-1.967-1.184-1.05-1.983-2.348-2.215-2.744-.232-.397-.025-.612.175-.81.178-.177.398-.462.597-.693.199-.232.265-.397.398-.661s.066-.496-.034-.694c-.099-.199-.872-2.16-1.226-2.943z" fill="#fff"/><defs><linearGradient id="a" x1="48" y1="48" x2="48" y2="0" gradientUnits="userSpaceOnUse"><stop stop-color="#20B038"/><stop offset="1" stop-color="#60D66A"/></linearGradient><linearGradient id="b" x1="40" y1="40" x2="40" y2="8" gradientUnits="userSpaceOnUse"><stop stop-color="#F9F9F9"/><stop offset="1" stop-color="#fff"/></linearGradient></defs></svg>