<svg width="48" height="48" fill="none" xmlns="http://www.w3.org/2000/svg"><circle cx="24" cy="24" r="24" fill="#F6F6F6"/><path d="M31.263 16v.534c-.7.125-1.228.346-1.588.663a6.104 6.104 0 0 0-1.52 2.163L20.053 36h-.539L11.38 19.144c-.378-.866-.894-1.394-1.049-1.586a2.548 2.548 0 0 0-.896-.7c-.354-.168-.833-.276-1.435-.325V16h7.914v.534c-.913.086-1.348.24-1.62.461a1.047 1.047 0 0 0-.408.85c0 .482.224 1.231.67 2.25l6.007 11.464 5.873-11.32c.456-1.115.835-1.889.835-2.321 0-.279-.14-.546-.422-.8-.282-.255-.6-.436-1.27-.541a9.47 9.47 0 0 0-.249-.044V16h5.933z" fill="#000"/><path d="M40 16v.534c-.7.125-1.229.346-1.588.663a6.102 6.102 0 0 0-1.52 2.163L28.79 36h-.54l-8.133-16.856c-.38-.866-.894-1.394-1.05-1.586a2.548 2.548 0 0 0-.895-.7c-.355-.168-.834-.276-1.436-.325V16h7.915v.534c-.913.086-1.349.24-1.62.461a1.047 1.047 0 0 0-.409.85c0 .482.224 1.231.67 2.25L29.3 31.56l5.873-11.32c.457-1.115.836-1.889.836-2.321 0-.279-.141-.546-.423-.8-.282-.255-.6-.436-1.27-.541a9.394 9.394 0 0 0-.248-.044V16H40z" fill="#000"/></svg>