<svg width="48" height="48" fill="none" xmlns="http://www.w3.org/2000/svg"><circle cx="24" cy="24" r="24" fill="#0085BE"/><path fill-rule="evenodd" clip-rule="evenodd" d="M24 42c-9.941 0-18-8.059-18-18S14.059 6 24 6s18 8.059 18 18-8.059 18-18 18zM8.382 24c0 6.19 3.6 11.52 8.806 14.054l-7.45-20.41c-.894 2-1.356 4.166-1.356 6.356zm20.81 14.732a15.787 15.787 0 0 1-5.192.886c-1.537 0-3.018-.221-4.403-.637l4.68-13.61 4.804 13.154.111.207zm-3.046-22.057 5.65 16.796 1.564-5.206.145-.471c.593-1.918 1.032-3.34 1.032-4.583 0-1.939-.692-3.268-1.274-4.292l-.157-.255c-.74-1.192-1.38-2.225-1.38-3.415 0-1.44 1.08-2.769 2.63-2.769h.195A15.563 15.563 0 0 0 24 8.382a15.605 15.605 0 0 0-13.043 7.033l.997.028c1.634 0 4.154-.208 4.154-.208.858-.041.955 1.191.11 1.288 0 0-.844.11-1.8.152l5.705 16.92 3.42-10.246-2.437-6.674c-.546-.03-1.09-.076-1.634-.138-.844-.055-.747-1.343.097-1.302 0 0 2.576.208 4.113.208 1.633 0 4.153-.208 4.153-.208.845-.041.956 1.191.111 1.288 0 0-.845.097-1.8.152zM39.618 24c0 5.562-2.959 10.704-7.767 13.5l4.777-13.79a14.747 14.747 0 0 0 1.08-7.2 15.559 15.559 0 0 1 1.91 7.49z" fill="#fff"/></svg>