<svg width="48" height="48" fill="none" xmlns="http://www.w3.org/2000/svg"><circle cx="24" cy="24" r="24" fill="red"/><path fill-rule="evenodd" clip-rule="evenodd" d="M36.467 13.665c1.376.363 2.465 1.43 2.835 2.78C39.98 18.903 40 24 40 24s0 5.117-.678 7.555c-.37 1.35-1.458 2.417-2.834 2.78C34.003 35 24 35 24 35s-10.003 0-12.488-.665c-1.376-.363-2.465-1.43-2.834-2.78C8 29.097 8 24 8 24s0-5.097.657-7.535c.37-1.35 1.459-2.417 2.835-2.78C13.977 13.02 23.98 13 23.98 13s10.002 0 12.487.665zM29.094 24l-8.298 4.714v-9.428L29.094 24z" fill="#fff"/></svg>