<svg width="324" height="324" viewBox="0 0 324 324" fill="none" xmlns="http://www.w3.org/2000/svg">
<path d="M0 0C12.5 4.8 25.1 9.59999 38 11.3C50.9 13 64.1 11.5 76.3 14.3C88.6 17 99.7 24 112.4 27.6C125.1 31.2 139.2 31.6 149.6 38.9C160 46.2 166.7 60.5 175 70.5C183.3 80.6 193.2 86.4 206.9 90.5C220.6 94.5 238 96.8 242.5 109.1C247.1 121.5 238.8 143.9 240.3 158.1C241.8 172.4 253.2 178.4 260.3 187.4C267.4 196.3 270.3 208.1 277.7 218.7C285.1 229.2 297.2 238.5 301 249.8C304.8 261.1 300.3 274.5 302.8 287.2C305.2 299.9 314.6 312 324 324H0V0Z" fill="#091931"/>
<path d="M0 40.5C11 44.7 21.9 48.9 33.2 50.4C44.5 51.9 56.1 50.6 66.8 53C77.5 55.4 87.3 61.5 98.4 64.6C109.4 67.8 121.8 68.1 130.9 74.5C140 80.9 145.8 93.4 153.1 102.2C160.4 111 169.1 116.1 181 119.7C193 123.2 208.2 125.2 212.2 136C216.2 146.8 208.9 166.4 210.3 178.9C211.6 191.3 221.6 196.6 227.8 204.4C234 212.3 236.5 222.6 243 231.8C249.5 241.1 260 249.2 263.4 259.1C266.7 269 262.8 280.7 264.9 291.8C267.1 303 275.3 313.5 283.5 324H0V40.5Z" fill="#2C254D"/>
<path d="M0 81C9.4 84.6 18.8 88.2 28.5 89.5C38.1 90.7 48.1 89.6 57.3 91.7C66.4 93.8 74.8 99 84.3 101.7C93.8 104.4 104.4 104.7 112.2 110.2C120 115.6 125 126.4 131.2 133.9C137.4 141.4 144.9 145.8 155.2 148.8C165.4 151.9 178.5 153.6 181.9 162.9C185.3 172.1 179.1 188.9 180.2 199.6C181.4 210.3 189.9 214.8 195.2 221.5C200.6 228.2 202.7 237.1 208.3 245C213.9 252.9 222.9 259.9 225.7 268.4C228.6 276.9 225.2 286.9 227.1 296.4C228.9 306 236 315 243 324H0V81Z" fill="#592B61"/>
<path d="M0 121.5C7.8 124.5 15.7 127.5 23.7 128.6C31.8 129.6 40.1 128.7 47.7 130.4C55.3 132.1 62.3 136.5 70.3 138.7C78.2 141 87 141.2 93.5 145.8C100 150.4 104.2 159.3 109.4 165.6C114.5 171.9 120.8 175.5 129.3 178C137.9 180.6 148.7 182 151.6 189.7C154.4 197.4 149.2 211.4 150.2 220.3C151.2 229.2 158.3 233 162.7 238.6C167.1 244.2 168.9 251.6 173.6 258.2C178.2 264.8 185.7 270.6 188.1 277.6C190.5 284.7 187.7 293.1 189.2 301C190.8 309 196.6 316.5 202.5 324H0V121.5Z" fill="#8A2C67"/>
<path d="M0 162C6.3 164.4 12.5 166.8 19 167.6C25.4 168.5 32.1 167.8 38.2 169.1C44.3 170.5 49.9 174 56.2 175.8C62.5 177.6 69.6 177.8 74.8 181.4C80 185.1 83.3 192.2 87.5 197.3C91.6 202.3 96.6 205.2 103.4 207.2C110.3 209.3 119 210.4 121.3 216.6C123.5 222.7 119.4 233.9 120.2 241.1C120.9 248.2 126.6 251.2 130.2 255.7C133.7 260.2 135.1 266.1 138.8 271.3C142.6 276.6 148.6 281.2 150.5 286.9C152.4 292.6 150.2 299.3 151.4 305.6C152.6 312 157.3 318 162 324H0V162Z" fill="#B82F60"/>
<path d="M0 202.5C4.7 204.3 9.4 206.1 14.2 206.7C19.1 207.4 24 206.8 28.6 207.9C33.2 208.9 37.4 211.5 42.2 212.8C46.9 214.2 52.2 214.3 56.1 217.1C60 219.8 62.5 225.2 65.6 228.9C68.7 232.7 72.5 234.9 77.6 236.4C82.7 237.9 89.2 238.8 90.9 243.4C92.7 248.1 89.5 256.5 90.1 261.8C90.7 267.1 95 269.4 97.6 272.8C100.3 276.1 101.3 280.6 104.1 284.5C106.9 288.5 111.4 291.9 112.9 296.2C114.3 300.4 112.6 305.4 113.5 310.2C114.5 315 118 319.5 121.5 324H0V202.5Z" fill="#DD414C"/>
<path d="M0 243C3.1 244.2 6.3 245.4 9.5 245.8C12.7 246.2 16 245.9 19.1 246.6C22.1 247.3 24.9 249 28.1 249.9C31.3 250.8 34.8 250.9 37.4 252.7C40 254.5 41.7 258.1 43.7 260.6C45.8 263.1 48.3 264.6 51.7 265.6C55.1 266.6 59.5 267.2 60.6 270.3C61.8 273.4 59.7 279 60.1 282.5C60.5 286.1 63.3 287.6 65.1 289.8C66.9 292.1 67.6 295 69.4 297.7C71.3 300.3 74.3 302.6 75.2 305.5C76.2 308.3 75.1 311.6 75.7 314.8C76.3 318 78.7 321 81 324H0V243Z" fill="#F3632C"/>
<path d="M0 283.5C1.6 284.1 3.1 284.7 4.7 284.9C6.4 285.1 8 284.9 9.5 285.3C11.1 285.6 12.5 286.5 14.1 286.9C15.6 287.4 17.4 287.4 18.7 288.4C20 289.3 20.8 291.1 21.9 292.3C22.9 293.6 24.2 294.3 25.9 294.8C27.6 295.3 29.7 295.6 30.3 297.1C30.9 298.7 29.8 301.5 30 303.3C30.2 305 31.7 305.8 32.5 306.9C33.4 308 33.8 309.5 34.7 310.8C35.6 312.2 37.1 313.3 37.6 314.7C38.1 316.1 37.5 317.8 37.8 319.4C38.2 321 39.3 322.5 40.5 324H0V283.5Z" fill="#F7770F"/>
</svg>
