<svg width="36" height="36" viewBox="0 0 36 36" fill="none" xmlns="http://www.w3.org/2000/svg">
<circle cx="18" cy="18" r="18" fill="#5865F2"/>
<path fill-rule="evenodd" clip-rule="evenodd" d="M26.3303 10.5703C24.7767 9.83672 23.1156 9.30358 21.3789 9C21.1656 9.38917 20.9164 9.91262 20.7446 10.329C18.8985 10.0488 17.0693 10.0488 15.2572 10.329C15.0854 9.91262 14.8306 9.38917 14.6154 9C12.8768 9.30358 11.2138 9.83868 9.66019 10.5742C6.52664 15.3532 5.67719 20.0134 6.10192 24.6075C8.18025 26.1739 10.1944 27.1254 12.1746 27.7481C12.6635 27.069 13.0995 26.3471 13.4752 25.5863C12.7598 25.3119 12.0745 24.9733 11.4271 24.5803C11.5988 24.4518 11.7669 24.3176 11.9292 24.1794C15.8782 26.0435 20.1689 26.0435 24.0707 24.1794C24.235 24.3176 24.403 24.4518 24.5728 24.5803C23.9235 24.9752 23.2364 25.3138 22.521 25.5882C22.8966 26.3471 23.3308 27.0709 23.8216 27.75C25.8036 27.1273 27.8197 26.1758 29.898 24.6075C30.3964 19.2818 29.0467 14.6643 26.3303 10.5703ZM14.0132 21.7822C12.8277 21.7822 11.8556 20.6653 11.8556 19.3051C11.8556 17.945 12.807 16.8261 14.0132 16.8261C15.2194 16.8261 16.1916 17.943 16.1708 19.3051C16.1727 20.6653 15.2194 21.7822 14.0132 21.7822ZM19.8291 19.3051C19.8291 20.6653 20.8013 21.7822 21.9867 21.7822C23.193 21.7822 24.1444 20.6653 24.1444 19.3051C24.1651 17.943 23.193 16.8261 21.9867 16.8261C20.7805 16.8261 19.8291 17.945 19.8291 19.3051Z" fill="white"/>
</svg>
