<svg width="36" height="36" viewBox="0 0 36 36" fill="none" xmlns="http://www.w3.org/2000/svg">
<circle cx="18" cy="18" r="18" fill="black"/>
<path d="M18 6C11.37 6 6 11.3338 6 17.919C6 23.1932 9.435 27.648 14.205 29.2272C14.805 29.3315 15.03 28.974 15.03 28.6611C15.03 28.378 15.015 27.4394 15.015 26.4412C12 26.9924 11.22 25.7111 10.98 25.0407C10.845 24.698 10.26 23.6402 9.75 23.3571C9.33 23.1336 8.73 22.5824 9.735 22.5675C10.68 22.5526 11.355 23.4316 11.58 23.7892C12.66 25.5919 14.385 25.0854 15.075 24.7725C15.18 23.9978 15.495 23.4763 15.84 23.1783C13.17 22.8803 10.38 21.8523 10.38 17.2933C10.38 15.9971 10.845 14.9244 11.61 14.09C11.49 13.7921 11.07 12.5704 11.73 10.9315C11.73 10.9315 12.735 10.6186 15.03 12.1532C15.99 11.885 17.01 11.7509 18.03 11.7509C19.05 11.7509 20.07 11.885 21.03 12.1532C23.325 10.6037 24.33 10.9315 24.33 10.9315C24.99 12.5704 24.57 13.7921 24.45 14.09C25.215 14.9244 25.68 15.9822 25.68 17.2933C25.68 21.8672 22.875 22.8803 20.205 23.1783C20.64 23.5508 21.015 24.2659 21.015 25.3833C21.015 26.9775 21 28.2588 21 28.6611C21 28.974 21.225 29.3464 21.825 29.2272C26.7097 27.5893 29.9987 23.0398 30 17.919C30 11.3338 24.63 6 18 6Z" fill="white"/>
</svg>
