<svg width="36" height="36" viewBox="0 0 36 36" fill="none" xmlns="http://www.w3.org/2000/svg">
<circle cx="18" cy="18" r="18" fill="#FF4500"/>
<path fill-rule="evenodd" clip-rule="evenodd" d="M28.3581 15.851C29.319 16.234 29.9618 17.1371 29.9997 18.1572C30.0154 19.1548 29.4477 20.0726 28.5403 20.5167C28.5606 20.7765 28.5606 21.0375 28.5403 21.2973C28.5403 25.2712 23.8378 28.5 18.0363 28.5C12.2348 28.5 7.53231 25.2712 7.53231 21.2973C7.51203 21.0375 7.51203 20.7765 7.53231 20.5167C6.58534 20.0883 5.9845 19.1498 6.0003 18.1238C6.01611 17.0978 6.64559 16.1777 7.60533 15.7777C8.56506 15.3778 9.67408 15.5735 10.4331 16.2767C12.5091 14.8903 14.9516 14.1318 17.4598 14.0946L18.793 7.93855C18.8233 7.7946 18.9108 7.66856 19.036 7.58857C19.1613 7.50857 19.3138 7.48128 19.4597 7.51278L23.8739 8.38207C24.3192 7.62873 25.2543 7.30553 26.0801 7.61955C26.9059 7.93357 27.3777 8.79177 27.1932 9.64427C27.0086 10.4968 26.2225 11.091 25.3384 11.0462C24.4544 11.0014 23.7343 10.3309 23.6396 9.46425L19.784 8.66592L18.6129 14.201C21.0906 14.2533 23.4999 15.0113 25.5495 16.3831C26.2974 15.6763 27.3972 15.4679 28.3581 15.851ZM13.7843 18.1572C12.7892 18.1572 11.9825 18.9515 11.9825 19.9313C11.9825 20.4018 12.1724 20.853 12.5103 21.1857C12.8481 21.5184 13.3064 21.7053 13.7843 21.7053C14.7793 21.7053 15.586 20.911 15.586 19.9313C15.586 18.9515 14.7793 18.1572 13.7843 18.1572ZM22.4505 24.8099C21.1722 25.7585 19.5995 26.2412 18.0003 26.176C16.401 26.2412 14.8283 25.7585 13.55 24.8099C13.3913 24.6195 13.4052 24.3416 13.5821 24.1674C13.759 23.9931 14.0413 23.9795 14.2347 24.1358C15.3179 24.9182 16.6402 25.3125 17.9823 25.2535C19.326 25.3254 20.6544 24.9436 21.7478 24.1713C21.8766 24.0477 22.0625 24.0011 22.2356 24.0491C22.4086 24.0971 22.5426 24.2323 22.5869 24.4039C22.6312 24.5755 22.5792 24.7573 22.4505 24.8809V24.8099ZM20.3245 20.0022C20.3245 20.982 21.1311 21.7763 22.1262 21.7763L22.1082 21.8472C22.6019 21.8525 23.0762 21.658 23.4202 21.3092C23.7641 20.9605 23.9477 20.488 23.9279 20.0022C23.9279 19.0224 23.1213 18.2281 22.1262 18.2281C21.1311 18.2281 20.3245 19.0224 20.3245 20.0022Z" fill="white"/>
</svg>
