<svg width="324" height="324" viewBox="0 0 324 324" fill="none" xmlns="http://www.w3.org/2000/svg">
<path d="M324 324C312 316.1 300 308.1 286.6 307.7C273.2 307.3 258.4 314.5 248.4 306.8C238.4 299.2 233.2 276.8 220.1 274C207 271.2 185.9 288 173.9 286C161.9 284 158.8 263.2 149 253.5C139.2 243.8 122.7 245.2 113.1 238C103.6 230.9 101.1 215.2 92.7 204.9C84.3 194.6 70.1 189.7 65.6 178.4C61 167 66.1 149.1 63.7 136.6C61.2 124.1 51.2 117 37.9 108.5C24.5 100.1 7.89999 90.3 9.39999 77.5C10.9 64.7 30.7 48.9 32.1 35.4C33.6 22 16.8 11 0 0H324V324Z" fill="#091931"/>
<path d="M324 283.5C313.5 276.6 303 269.6 291.3 269.3C279.6 268.9 266.6 275.2 257.8 268.5C249.1 261.8 244.6 242.2 233.1 239.7C221.6 237.3 203.2 252 192.7 250.3C182.1 248.5 179.5 230.3 170.9 221.8C162.3 213.3 147.8 214.5 139.5 208.3C131.1 202 128.9 188.3 121.6 179.3C114.3 170.3 101.9 166 97.9 156.1C93.9 146.1 98.4 130.5 96.2 119.6C94.1 108.6 85.3 102.3 73.6 94.9C62 87.6 47.4 79 48.7 67.8C50.1 56.6 67.3 42.8 68.6 31C69.9 19.3 55.2 9.6 40.5 0H324V283.5Z" fill="#2C254D"/>
<path d="M324 243C315 237.1 306 231.1 296 230.8C285.9 230.5 274.8 235.8 267.3 230.1C259.8 224.4 255.9 207.6 246.1 205.5C236.2 203.4 220.5 216 211.4 214.5C202.4 213 200.1 197.4 192.8 190.1C185.4 182.8 173 183.9 165.8 178.5C158.7 173.2 156.8 161.4 150.5 153.7C144.3 146 133.6 142.3 130.2 133.8C126.8 125.3 130.6 111.9 128.8 102.5C126.9 93.1 119.4 87.7 109.4 81.4C99.4 75 86.9 67.8 88.1 58.2C89.2 48.6 104 36.7 105.1 26.6C106.2 16.5 93.6 8.3 81 0H324V243Z" fill="#592B61"/>
<path d="M324 202.5C316.5 197.5 309 192.6 300.6 192.3C292.3 192.1 283 196.5 276.7 191.8C270.5 187 267.3 173 259.1 171.2C250.9 169.5 237.7 180 230.2 178.8C222.7 177.5 220.8 164.5 214.6 158.4C208.5 152.4 198.2 153.2 192.2 148.8C186.2 144.3 184.7 134.5 179.4 128.1C174.2 121.6 165.3 118.6 162.5 111.5C159.6 104.4 162.8 93.2 161.3 85.4C159.8 77.6 153.5 73.1 145.2 67.8C136.8 62.5 126.4 56.5 127.4 48.5C128.3 40.5 140.7 30.5 141.6 22.1C142.5 13.8 132 6.9 121.5 0H324V202.5Z" fill="#8A2C67"/>
<path d="M324 162C318 158 312 154.1 305.3 153.9C298.6 153.7 291.2 157.2 286.2 153.4C281.2 149.6 278.6 138.4 272.1 137C265.5 135.6 255 144 248.9 143C242.9 142 241.4 131.6 236.5 126.7C231.6 121.9 223.3 122.6 218.6 119C213.8 115.4 212.5 107.6 208.4 102.5C204.2 97.3 197.1 94.9 194.8 89.2C192.5 83.5 195.1 74.6 193.8 68.3C192.6 62.1 187.6 58.5 180.9 54.3C174.3 50 165.9 45.2 166.7 38.8C167.5 32.4 177.3 24.4 178.1 17.7C178.8 11 170.4 5.5 162 0H324V162Z" fill="#B82F60"/>
<path d="M324 121.5C319.5 118.5 315 115.6 310 115.4C305 115.3 299.4 117.9 295.6 115.1C291.9 112.2 290 103.8 285 102.7C280.1 101.7 272.2 108 267.7 107.3C263.2 106.5 262.1 98.7 258.4 95.1C254.7 91.4 248.5 91.9 244.9 89.3C241.3 86.6 240.4 80.7 237.3 76.8C234.1 73 228.8 71.2 227.1 66.9C225.4 62.6 227.3 55.9 226.4 51.2C225.5 46.5 221.7 43.9 216.7 40.7C211.7 37.5 205.5 33.9 206 29.1C206.6 24.3 214 18.3 214.6 13.3C215.1 8.3 208.8 4.1 202.5 0H324V121.5Z" fill="#DD414C"/>
<path d="M324 81C321 79 318 77 314.7 76.9C311.3 76.8 307.6 78.6 305.1 76.7C302.6 74.8 301.3 69.2 298 68.5C294.7 67.8 289.5 72 286.5 71.5C283.5 71 282.7 65.8 280.3 63.4C277.8 60.9 273.7 61.3 271.3 59.5C268.9 57.7 268.3 53.8 266.2 51.2C264.1 48.7 260.5 47.4 259.4 44.6C258.3 41.8 259.5 37.3 258.9 34.2C258.3 31 255.8 29.2 252.5 27.1C249.1 25 245 22.6 245.4 19.4C245.7 16.2 250.7 12.2 251 8.9C251.4 5.5 247.2 2.8 243 0H324V81Z" fill="#F3632C"/>
<path d="M324 40.5C322.5 39.5 321 38.5 319.3 38.5C317.7 38.4 315.8 39.3 314.5 38.4C313.3 37.4 312.7 34.6 311 34.2C309.4 33.9 306.7 36 305.2 35.8C303.7 35.5 303.4 32.9 302.1 31.7C300.9 30.5 298.8 30.6 297.6 29.8C296.4 28.9 296.1 26.9 295.1 25.6C294 24.3 292.3 23.7 291.7 22.3C291.1 20.9 291.8 18.6 291.5 17.1C291.2 15.5 289.9 14.6 288.2 13.6C286.6 12.5 284.5 11.3 284.7 9.7C284.9 8.1 287.3 6.1 287.5 4.4C287.7 2.8 285.6 1.4 283.5 0H324V40.5Z" fill="#F7770F"/>
</svg>
