<svg width="296" height="163" viewBox="0 0 296 163" fill="none" xmlns="http://www.w3.org/2000/svg">
<rect width="296" height="163" rx="8" fill="#7D53DE"/>
<path opacity="0.3" d="M127.375 61.375H138.875V78.625H127.375V61.375ZM156.125 84.375H167.625V101.625H156.125V84.375ZM127.375 95.875H138.875V101.625H127.375V95.875ZM156.125 61.375H167.625V67.125H156.125V61.375Z" fill="white"/>
<path d="M121.625 84.375H144.625V55.625H121.625V84.375ZM127.375 61.375H138.875V78.625H127.375V61.375ZM150.375 107.375H173.375V78.625H150.375V107.375ZM156.125 84.375H167.625V101.625H156.125V84.375ZM150.375 55.625V72.875H173.375V55.625H150.375ZM167.625 67.125H156.125V61.375H167.625V67.125ZM121.625 107.375H144.625V90.125H121.625V107.375ZM127.375 95.875H138.875V101.625H127.375V95.875Z" fill="white"/>
</svg>
