<svg width="296" height="163" viewBox="0 0 296 163" fill="none" xmlns="http://www.w3.org/2000/svg">
<rect width="296" height="163" rx="8" fill="#FF9B42"/>
<path opacity="0.3" d="M147.5 64.25C136.374 64.25 127.375 73.2488 127.375 84.375C127.375 95.5012 136.374 104.5 147.5 104.5C158.626 104.5 167.625 95.5012 167.625 84.375C167.625 73.2488 158.626 64.25 147.5 64.25ZM150.375 87.25H144.625V70H150.375V87.25Z" fill="white"/>
<path d="M156.125 49.875H138.875V55.625H156.125V49.875Z" fill="white"/>
<path d="M167.711 68.2462L171.794 64.1637C170.558 62.6975 169.206 61.3175 167.74 60.11L163.658 64.1925C159.201 60.6275 153.595 58.5 147.5 58.5C133.211 58.5 121.625 70.0863 121.625 84.375C121.625 98.6637 133.182 110.25 147.5 110.25C161.818 110.25 173.375 98.6637 173.375 84.375C173.375 78.28 171.248 72.6737 167.711 68.2462ZM147.5 104.5C136.374 104.5 127.375 95.5013 127.375 84.375C127.375 73.2488 136.374 64.25 147.5 64.25C158.626 64.25 167.625 73.2488 167.625 84.375C167.625 95.5013 158.626 104.5 147.5 104.5Z" fill="white"/>
<path d="M150.375 70H144.625V87.25H150.375V70Z" fill="white"/>
</svg>
